<svg xmlns="http://www.w3.org/2000/svg" xmlns:xlink="http://www.w3.org/1999/xlink" width="500" zoomAndPan="magnify" viewBox="0 0 375 374.999991" height="500" preserveAspectRatio="xMidYMid meet" version="1.0"><path fill="#5bb4c5" d="M 275.160156 188.414062 C 253.625 209.945312 229.078125 227.757812 204.015625 240.054688 L 134.195312 170.234375 C 146.492188 145.175781 164.304688 120.625 185.839844 99.089844 C 210.460938 74.46875 238.257812 55.394531 265.855469 43.304688 L 330.949219 108.394531 C 318.859375 135.992188 299.78125 163.789062 275.160156 188.414062 Z M 186.601562 287.71875 C 187.402344 286.863281 188.21875 285.996094 189.042969 285.171875 C 199.324219 274.886719 205.8125 261.367188 207.414062 246.960938 C 225.339844 238.164062 242.992188 226.640625 259.519531 213.011719 C 253.75 251.144531 224.363281 281.078125 186.601562 287.71875 Z M 107.703125 278.027344 L 96.46875 278.027344 L 96.46875 267.28125 C 96.46875 245.777344 108.722656 226.269531 127.90625 216.882812 L 157.941406 246.917969 C 148.488281 265.902344 129.050781 278.027344 107.703125 278.027344 Z M 173.96875 252.058594 L 122.191406 200.285156 C 124.492188 192.804688 127.355469 185.21875 130.726562 177.652344 L 196.601562 243.523438 C 189.03125 246.898438 181.445312 249.757812 173.96875 252.058594 Z M 88.246094 184.371094 C 87.851562 184.765625 87.46875 185.167969 87.089844 185.566406 C 94.476562 148.972656 123.84375 120.671875 161.085938 114.917969 C 147.769531 131.089844 136.472656 148.34375 127.773438 165.867188 C 112.875 167.207031 98.839844 173.777344 88.246094 184.371094 Z M 344.789062 29.460938 C 347.84375 51.089844 343.933594 75.683594 334.140625 100.699219 L 273.550781 40.113281 C 298.566406 30.316406 323.160156 26.40625 344.789062 29.460938 Z M 339.367188 108.214844 C 351.773438 78.527344 356.125 49.902344 351.953125 25.445312 C 351.679688 23.835938 350.417969 22.574219 348.808594 22.300781 C 324.347656 18.125 295.726562 22.480469 266.035156 34.886719 C 265.8125 34.980469 265.585938 35.078125 265.363281 35.171875 C 265.304688 35.195312 265.25 35.21875 265.191406 35.246094 C 235.28125 47.890625 205.980469 68.066406 180.398438 93.648438 C 176.257812 97.785156 172.257812 102.035156 168.398438 106.375 C 144.726562 107.972656 122.535156 118.109375 105.792969 135.007812 C 88.765625 152.199219 78.78125 174.972656 77.691406 199.128906 C 77.691406 199.132812 77.691406 199.140625 77.691406 199.144531 C 77.6875 199.238281 77.6875 199.335938 77.691406 199.429688 C 77.691406 199.460938 77.691406 199.5 77.691406 199.535156 C 77.695312 199.605469 77.707031 199.671875 77.714844 199.738281 C 77.761719 200.167969 77.878906 200.578125 78.058594 200.949219 C 78.0625 200.957031 78.0625 200.96875 78.066406 200.972656 C 78.097656 201.035156 78.132812 201.09375 78.164062 201.152344 C 78.191406 201.203125 78.21875 201.253906 78.25 201.308594 C 78.257812 201.324219 78.273438 201.34375 78.285156 201.359375 C 78.496094 201.695312 78.765625 202 79.082031 202.261719 C 79.136719 202.3125 79.195312 202.359375 79.253906 202.40625 C 79.28125 202.421875 79.308594 202.4375 79.335938 202.457031 C 79.414062 202.511719 79.496094 202.566406 79.578125 202.617188 C 79.585938 202.617188 79.589844 202.621094 79.59375 202.625 C 79.617188 202.636719 79.644531 202.652344 79.667969 202.664062 C 79.75 202.707031 79.832031 202.753906 79.917969 202.796875 C 79.964844 202.816406 80.007812 202.835938 80.054688 202.851562 C 80.125 202.882812 80.191406 202.910156 80.265625 202.9375 C 80.328125 202.960938 80.394531 202.976562 80.457031 202.996094 C 80.511719 203.011719 80.566406 203.027344 80.621094 203.039062 C 80.703125 203.0625 80.789062 203.078125 80.875 203.089844 C 80.914062 203.097656 80.949219 203.105469 80.988281 203.113281 C 81.09375 203.125 81.195312 203.136719 81.296875 203.140625 C 81.320312 203.140625 81.339844 203.144531 81.359375 203.148438 C 81.363281 203.148438 81.371094 203.148438 81.375 203.148438 C 81.402344 203.148438 81.429688 203.148438 81.457031 203.148438 C 81.484375 203.152344 81.511719 203.152344 81.535156 203.152344 C 81.570312 203.152344 81.601562 203.148438 81.636719 203.144531 C 81.707031 203.144531 81.78125 203.140625 81.855469 203.136719 C 81.914062 203.132812 81.972656 203.121094 82.035156 203.117188 C 82.09375 203.105469 82.152344 203.101562 82.210938 203.089844 C 82.28125 203.078125 82.347656 203.0625 82.414062 203.046875 C 82.464844 203.035156 82.515625 203.023438 82.566406 203.011719 C 82.632812 202.988281 82.703125 202.96875 82.773438 202.941406 C 82.820312 202.925781 82.867188 202.910156 82.914062 202.890625 C 82.980469 202.867188 83.042969 202.839844 83.105469 202.8125 C 83.15625 202.789062 83.207031 202.765625 83.257812 202.742188 C 83.3125 202.714844 83.367188 202.6875 83.417969 202.65625 C 83.476562 202.621094 83.53125 202.59375 83.585938 202.558594 C 83.628906 202.53125 83.671875 202.5 83.714844 202.472656 C 83.773438 202.429688 83.832031 202.386719 83.890625 202.34375 C 83.925781 202.316406 83.960938 202.285156 83.996094 202.257812 C 84.054688 202.207031 84.113281 202.15625 84.167969 202.105469 C 84.207031 202.074219 84.238281 202.035156 84.273438 202 C 84.324219 201.953125 84.375 201.902344 84.421875 201.84375 C 84.46875 201.792969 84.507812 201.738281 84.554688 201.683594 C 84.585938 201.644531 84.621094 201.601562 84.648438 201.5625 C 84.726562 201.453125 84.796875 201.347656 84.863281 201.234375 C 87.285156 197.089844 90.257812 193.246094 93.6875 189.816406 C 101.910156 181.59375 112.488281 176.128906 123.863281 174.144531 C 119.953125 182.878906 116.695312 191.644531 114.160156 200.265625 C 114.121094 200.394531 114.089844 200.527344 114.0625 200.660156 C 114.050781 200.71875 114.046875 200.773438 114.039062 200.832031 C 114.027344 200.898438 114.019531 200.960938 114.011719 201.023438 C 114.003906 201.105469 114.003906 201.183594 114 201.265625 C 114 201.308594 113.996094 201.351562 113.996094 201.394531 C 113.996094 201.476562 114.003906 201.5625 114.007812 201.640625 C 114.011719 201.683594 114.011719 201.726562 114.015625 201.769531 C 114.023438 201.84375 114.039062 201.917969 114.046875 201.992188 C 114.058594 202.042969 114.0625 202.09375 114.074219 202.140625 C 114.085938 202.207031 114.105469 202.265625 114.117188 202.332031 C 114.136719 202.386719 114.148438 202.449219 114.167969 202.507812 C 114.183594 202.5625 114.203125 202.609375 114.21875 202.65625 C 114.246094 202.726562 114.269531 202.800781 114.296875 202.867188 C 114.3125 202.90625 114.335938 202.945312 114.351562 202.988281 C 114.386719 203.058594 114.417969 203.132812 114.457031 203.203125 C 114.480469 203.242188 114.503906 203.28125 114.527344 203.320312 C 114.566406 203.390625 114.605469 203.457031 114.648438 203.519531 C 114.683594 203.574219 114.726562 203.625 114.765625 203.675781 C 114.800781 203.726562 114.832031 203.773438 114.871094 203.816406 C 114.953125 203.921875 115.042969 204.019531 115.140625 204.113281 L 122.191406 211.167969 C 101.71875 222.246094 88.769531 243.707031 88.769531 267.28125 L 88.769531 281.875 C 88.769531 284.003906 90.492188 285.726562 92.617188 285.726562 L 107.703125 285.726562 C 131.113281 285.726562 152.511719 272.898438 163.644531 252.617188 L 170.121094 259.097656 C 170.128906 259.101562 170.132812 259.109375 170.140625 259.113281 L 170.152344 259.128906 C 170.160156 259.136719 170.167969 259.140625 170.175781 259.152344 C 170.25 259.222656 170.328125 259.296875 170.410156 259.359375 C 170.441406 259.382812 170.472656 259.410156 170.503906 259.433594 C 170.5625 259.480469 170.625 259.527344 170.6875 259.570312 C 170.726562 259.597656 170.765625 259.621094 170.804688 259.648438 C 170.863281 259.6875 170.925781 259.726562 170.988281 259.761719 C 171.03125 259.78125 171.074219 259.808594 171.117188 259.832031 C 171.207031 259.878906 171.300781 259.921875 171.394531 259.960938 C 171.441406 259.976562 171.484375 259.996094 171.527344 260.011719 C 171.59375 260.03125 171.660156 260.058594 171.726562 260.078125 C 171.769531 260.089844 171.808594 260.101562 171.855469 260.117188 C 171.925781 260.132812 172 260.15625 172.074219 260.171875 C 172.109375 260.175781 172.148438 260.1875 172.183594 260.195312 C 172.273438 260.207031 172.367188 260.222656 172.460938 260.230469 C 172.480469 260.234375 172.5 260.238281 172.519531 260.238281 C 172.636719 260.25 172.753906 260.257812 172.875 260.257812 C 172.988281 260.257812 173.101562 260.25 173.214844 260.242188 C 173.238281 260.238281 173.265625 260.234375 173.289062 260.230469 C 173.375 260.222656 173.460938 260.207031 173.546875 260.195312 C 173.582031 260.191406 173.613281 260.183594 173.644531 260.175781 C 173.746094 260.15625 173.851562 260.132812 173.953125 260.097656 C 173.964844 260.097656 173.972656 260.097656 173.984375 260.09375 C 182.25 257.664062 190.648438 254.566406 199.027344 250.871094 C 196.863281 261.742188 191.503906 271.820312 183.601562 279.726562 C 182.570312 280.757812 181.59375 281.800781 180.652344 282.8125 C 178.191406 285.449219 175.871094 287.9375 173.144531 289.53125 C 173.140625 289.535156 173.136719 289.539062 173.132812 289.539062 C 173.046875 289.589844 172.96875 289.644531 172.886719 289.699219 C 172.863281 289.71875 172.832031 289.734375 172.804688 289.757812 C 172.746094 289.796875 172.691406 289.84375 172.632812 289.894531 C 172.316406 290.15625 172.046875 290.460938 171.835938 290.796875 C 171.824219 290.816406 171.808594 290.832031 171.800781 290.851562 C 171.769531 290.902344 171.742188 290.953125 171.714844 291.003906 C 171.683594 291.0625 171.648438 291.121094 171.617188 291.183594 C 171.613281 291.191406 171.613281 291.199219 171.609375 291.207031 C 171.429688 291.582031 171.316406 291.988281 171.265625 292.417969 C 171.257812 292.484375 171.25 292.550781 171.242188 292.621094 C 171.242188 292.65625 171.242188 292.695312 171.242188 292.730469 C 171.242188 292.824219 171.238281 292.917969 171.242188 293.015625 C 171.242188 293.015625 171.242188 293.023438 171.242188 293.03125 C 171.242188 293.058594 171.246094 293.089844 171.25 293.125 C 171.257812 293.210938 171.261719 293.300781 171.273438 293.390625 C 171.28125 293.4375 171.292969 293.480469 171.300781 293.53125 C 171.3125 293.605469 171.328125 293.675781 171.34375 293.75 C 171.359375 293.820312 171.378906 293.882812 171.398438 293.949219 C 171.414062 294.003906 171.429688 294.054688 171.445312 294.109375 C 171.480469 294.203125 171.515625 294.292969 171.558594 294.382812 C 171.566406 294.40625 171.574219 294.429688 171.585938 294.453125 C 171.703125 294.714844 171.851562 294.953125 172.023438 295.183594 C 172.050781 295.21875 172.078125 295.25 172.105469 295.285156 C 172.179688 295.375 172.257812 295.464844 172.339844 295.546875 C 172.367188 295.574219 172.394531 295.601562 172.417969 295.628906 C 172.523438 295.726562 172.628906 295.816406 172.742188 295.902344 C 172.78125 295.9375 172.820312 295.960938 172.859375 295.988281 C 172.949219 296.050781 173.035156 296.109375 173.128906 296.164062 C 173.167969 296.1875 173.203125 296.207031 173.242188 296.230469 C 173.5 296.371094 173.78125 296.484375 174.070312 296.5625 C 174.105469 296.574219 174.140625 296.582031 174.171875 296.589844 C 174.289062 296.617188 174.40625 296.640625 174.523438 296.65625 C 174.558594 296.664062 174.597656 296.671875 174.636719 296.675781 C 174.78125 296.691406 174.921875 296.703125 175.070312 296.703125 C 175.078125 296.703125 175.082031 296.703125 175.089844 296.703125 C 175.09375 296.703125 175.101562 296.703125 175.109375 296.703125 C 175.160156 296.703125 175.210938 296.703125 175.261719 296.699219 C 199.417969 295.605469 222.191406 285.625 239.382812 268.597656 C 256.347656 251.789062 266.496094 229.492188 268.03125 205.714844 C 272.316406 201.898438 276.515625 197.941406 280.605469 193.855469 C 306.199219 168.257812 326.382812 138.933594 339.027344 109.007812 C 339.042969 108.976562 339.058594 108.941406 339.070312 108.914062 C 339.167969 108.679688 339.269531 108.449219 339.367188 108.214844 " fill-opacity="1" fill-rule="nonzero"/><path fill="#5bb4c5" d="M 181.695312 187.113281 L 180.398438 188.414062 C 178.894531 189.914062 178.894531 192.347656 180.398438 193.855469 C 181.148438 194.605469 182.132812 194.980469 183.117188 194.980469 C 184.105469 194.980469 185.089844 194.605469 185.839844 193.855469 L 187.136719 192.554688 C 188.640625 191.050781 188.640625 188.617188 187.136719 187.113281 C 185.636719 185.609375 183.199219 185.609375 181.695312 187.113281 " fill-opacity="1" fill-rule="nonzero"/><path fill="#5bb4c5" d="M 195.582031 173.226562 L 191.199219 177.609375 C 189.695312 179.113281 189.695312 181.550781 191.199219 183.054688 C 191.949219 183.804688 192.933594 184.179688 193.917969 184.179688 C 194.90625 184.179688 195.890625 183.804688 196.640625 183.054688 L 201.023438 178.667969 C 202.527344 177.167969 202.527344 174.730469 201.023438 173.226562 C 199.523438 171.722656 197.085938 171.722656 195.582031 173.226562 " fill-opacity="1" fill-rule="nonzero"/><path fill="#5bb4c5" d="M 215.476562 153.332031 L 205.734375 163.074219 C 204.230469 164.578125 204.230469 167.011719 205.734375 168.519531 C 206.484375 169.269531 207.46875 169.648438 208.457031 169.648438 C 209.441406 169.648438 210.425781 169.269531 211.175781 168.519531 L 220.921875 158.773438 C 222.421875 157.269531 222.421875 154.832031 220.921875 153.332031 C 219.417969 151.828125 216.980469 151.828125 215.476562 153.332031 " fill-opacity="1" fill-rule="nonzero"/><path fill="#5bb4c5" d="M 271.507812 134.328125 C 262.800781 143.039062 248.628906 143.039062 239.917969 134.328125 C 231.214844 125.625 231.214844 111.449219 239.917969 102.742188 C 244.277344 98.390625 249.992188 96.214844 255.714844 96.214844 C 261.433594 96.214844 267.15625 98.390625 271.507812 102.742188 C 275.722656 106.964844 278.050781 112.570312 278.050781 118.539062 C 278.050781 124.503906 275.722656 130.113281 271.507812 134.328125 Z M 276.949219 97.300781 C 265.238281 85.59375 246.1875 85.59375 234.476562 97.300781 C 222.769531 109.011719 222.769531 128.0625 234.476562 139.773438 C 240.332031 145.628906 248.023438 148.554688 255.714844 148.554688 C 263.40625 148.554688 271.097656 145.628906 276.949219 139.773438 C 288.660156 128.0625 288.660156 109.011719 276.949219 97.300781 " fill-opacity="1" fill-rule="nonzero"/><path fill="#5bb4c5" d="M 45.300781 237.671875 C 46.285156 237.671875 47.269531 237.292969 48.023438 236.542969 L 70.585938 213.980469 C 72.089844 212.472656 72.089844 210.039062 70.585938 208.535156 C 69.085938 207.03125 66.648438 207.03125 65.144531 208.535156 L 42.578125 231.101562 C 41.074219 232.605469 41.074219 235.039062 42.578125 236.542969 C 43.332031 237.292969 44.316406 237.671875 45.300781 237.671875 " fill-opacity="1" fill-rule="nonzero"/><path fill="#5bb4c5" d="M 75.238281 249.292969 C 76.742188 247.789062 76.742188 245.351562 75.238281 243.851562 C 73.734375 242.34375 71.300781 242.34375 69.796875 243.851562 L 20.359375 293.285156 C 18.855469 294.789062 18.855469 297.226562 20.359375 298.730469 C 21.109375 299.480469 22.09375 299.855469 23.078125 299.855469 C 24.066406 299.855469 25.050781 299.480469 25.800781 298.730469 L 75.238281 249.292969 " fill-opacity="1" fill-rule="nonzero"/><path fill="#5bb4c5" d="M 124.917969 301.726562 L 76.339844 350.304688 C 74.839844 351.804688 74.839844 354.242188 76.339844 355.746094 C 77.09375 356.5 78.078125 356.875 79.0625 356.875 C 80.046875 356.875 81.03125 356.5 81.785156 355.746094 L 130.359375 307.167969 C 131.863281 305.667969 131.863281 303.230469 130.359375 301.726562 C 128.859375 300.222656 126.421875 300.222656 124.917969 301.726562 " fill-opacity="1" fill-rule="nonzero"/><path fill="#5bb4c5" d="M 158.851562 306.378906 L 139.386719 325.84375 C 137.886719 327.347656 137.886719 329.785156 139.386719 331.285156 C 140.140625 332.035156 141.125 332.414062 142.109375 332.414062 C 143.09375 332.414062 144.078125 332.035156 144.832031 331.285156 L 164.292969 311.820312 C 165.796875 310.316406 165.796875 307.878906 164.292969 306.378906 C 162.792969 304.875 160.355469 304.875 158.851562 306.378906 " fill-opacity="1" fill-rule="nonzero"/><path fill="#5bb4c5" d="M 82.1875 292.023438 C 80.683594 290.519531 78.246094 290.519531 76.742188 292.023438 L 26.558594 342.207031 C 25.058594 343.707031 25.058594 346.144531 26.558594 347.652344 C 27.308594 348.402344 28.296875 348.777344 29.28125 348.777344 C 30.265625 348.777344 31.25 348.402344 32.003906 347.652344 L 82.1875 297.464844 C 83.6875 295.960938 83.6875 293.523438 82.1875 292.023438 " fill-opacity="1" fill-rule="nonzero"/></svg>