<svg xmlns="http://www.w3.org/2000/svg" xmlns:xlink="http://www.w3.org/1999/xlink" width="1000" zoomAndPan="magnify" viewBox="0 0 750 749.999995" height="1000" preserveAspectRatio="xMidYMid meet" version="1.0"><defs><clipPath id="526ae44931"><path d="M 28 29.761719 L 384 29.761719 L 384 384 L 28 384 Z M 28 29.761719 " clip-rule="nonzero"/></clipPath></defs><g clip-path="url(#526ae44931)"><path fill="#5bb4c5" d="M 267.28125 29.972656 C 266.53125 29.980469 265.761719 30.019531 265 30.082031 C 234.625 35.492188 217.917969 68.636719 215.5 97.863281 C 211.960938 124.386719 223.289062 158.472656 251.511719 164.414062 C 255.605469 165.21875 259.859375 164.851562 263.863281 163.730469 C 297.847656 151.972656 313.054688 110.445312 308.144531 76.042969 C 306.714844 53.824219 290.484375 29.667969 267.28125 29.96875 Z M 138.488281 31.394531 C 119.601562 31.871094 104.886719 51.636719 101.894531 70.21875 C 95.582031 107.03125 111.8125 152.773438 148.984375 164.414062 C 152.464844 165.195312 156.066406 165.277344 159.582031 164.714844 C 184.707031 160.394531 195.347656 131.332031 194.296875 107.871094 C 193.539062 76.917969 177.960938 41.132812 146.808594 32.433594 C 143.960938 31.652344 141.1875 31.324219 138.488281 31.394531 Z M 349.585938 135.953125 C 316.910156 137.96875 294.503906 171.609375 291.3125 203.023438 C 286.988281 225.679688 298.695312 255.980469 323.75 257.789062 C 358.683594 257.34375 382.515625 218.828125 383.507812 185.6875 C 385.714844 163.769531 373.203125 137.160156 349.585938 135.953125 Z M 63.578125 143.417969 C 49.675781 143.292969 36.003906 151.882812 31.460938 166.464844 C 19.339844 205.46875 43.679688 254.871094 83.71875 263.066406 C 100.429688 266.019531 115.113281 252.777344 119.253906 236.847656 C 128.035156 202.769531 110 163.203125 79.480469 147.738281 C 74.507812 144.859375 69.019531 143.464844 63.578125 143.417969 Z M 210.070312 213.355469 C 182.816406 213.417969 155.136719 227.6875 137.488281 248.929688 C 118.425781 273.6875 102.8125 302.5 96.703125 333.746094 C 89.285156 356.238281 106.101562 382.121094 129.40625 382.277344 C 157.441406 383.082031 181.535156 363.21875 209.410156 361.742188 C 233.058594 358.023438 254.238281 370.714844 275.5 379.023438 C 293.605469 387.015625 318.621094 383.953125 327.867188 363.847656 C 335.136719 343.359375 324.433594 321.507812 315.570312 303.3125 C 297.488281 273.777344 278.117188 242.734375 248.472656 224.292969 C 236.589844 216.691406 223.382812 213.324219 210.070312 213.355469 Z M 210.070312 213.355469 " fill-opacity="1" fill-rule="nonzero"/></g><path fill="#5bb4c5" d="M 612.125 363.128906 C 611.375 363.140625 610.609375 363.179688 609.84375 363.238281 C 579.46875 368.652344 562.761719 401.792969 560.34375 431.023438 C 556.808594 457.542969 568.132812 491.632812 596.359375 497.574219 C 600.453125 498.378906 604.707031 498.011719 608.707031 496.890625 C 642.691406 485.132812 657.902344 443.601562 652.988281 409.203125 C 651.5625 386.984375 635.328125 362.824219 612.125 363.128906 Z M 483.332031 364.550781 C 464.445312 365.03125 449.730469 384.796875 446.738281 403.378906 C 440.425781 440.191406 456.65625 485.933594 493.828125 497.574219 C 497.308594 498.355469 500.910156 498.433594 504.425781 497.875 C 529.550781 493.554688 540.195312 464.488281 539.140625 441.027344 C 538.386719 410.078125 522.804688 374.292969 491.65625 365.589844 C 488.808594 364.8125 486.03125 364.484375 483.332031 364.550781 Z M 694.429688 469.109375 C 661.753906 471.128906 639.351562 504.769531 636.15625 536.183594 C 631.832031 558.839844 643.539062 589.140625 668.59375 590.949219 C 703.527344 590.503906 727.359375 551.988281 728.351562 518.847656 C 730.5625 496.929688 718.046875 470.320312 694.429688 469.109375 Z M 408.421875 476.574219 C 394.519531 476.453125 380.847656 485.042969 376.304688 499.625 C 364.183594 538.628906 388.523438 588.03125 428.5625 596.226562 C 445.273438 599.175781 459.957031 585.9375 464.101562 570.003906 C 472.882812 535.929688 454.847656 496.363281 424.324219 480.894531 C 419.351562 478.015625 413.863281 476.625 408.425781 476.578125 Z M 554.914062 546.515625 C 527.660156 546.574219 499.980469 560.847656 482.332031 582.085938 C 463.269531 606.847656 447.65625 635.65625 441.550781 666.902344 C 434.128906 689.398438 450.949219 715.28125 474.25 715.4375 C 502.285156 716.242188 526.378906 696.378906 554.253906 694.902344 C 577.90625 691.183594 599.082031 703.875 620.347656 712.183594 C 638.449219 720.171875 663.46875 717.109375 672.710938 697.007812 C 679.980469 676.519531 669.277344 654.667969 660.414062 636.472656 C 642.332031 606.933594 622.960938 575.894531 593.316406 557.449219 C 581.433594 549.851562 568.226562 546.484375 554.917969 546.515625 Z M 554.914062 546.515625 " fill-opacity="1" fill-rule="nonzero"/></svg>