<svg xmlns="http://www.w3.org/2000/svg" xmlns:xlink="http://www.w3.org/1999/xlink" width="1000" zoomAndPan="magnify" viewBox="0 0 750 749.999995" height="1000" preserveAspectRatio="xMidYMid meet" version="1.0"><defs><clipPath id="12b47a1359"><path d="M 18.75 631 L 731.25 631 L 731.25 641 L 18.75 641 Z M 18.75 631 " clip-rule="nonzero"/></clipPath><clipPath id="eff49b7095"><path d="M 18.75 173.015625 L 18.75 576.984375 C 18.75 618.40625 52.328125 651.984375 93.75 651.984375 L 656.25 651.984375 C 697.671875 651.984375 731.25 618.40625 731.25 576.984375 L 731.25 173.015625 C 731.25 131.59375 697.671875 98.015625 656.25 98.015625 L 93.75 98.015625 C 52.328125 98.015625 18.75 131.59375 18.75 173.015625 Z M 18.75 173.015625 " clip-rule="nonzero"/></clipPath><clipPath id="b2f3e25886"><path d="M 65 107 L 685 107 L 685 636 L 65 636 Z M 65 107 " clip-rule="nonzero"/></clipPath><clipPath id="ff015d213d"><path d="M 18.75 173.015625 L 18.75 576.984375 C 18.75 618.40625 52.328125 651.984375 93.75 651.984375 L 656.25 651.984375 C 697.671875 651.984375 731.25 618.40625 731.25 576.984375 L 731.25 173.015625 C 731.25 131.59375 697.671875 98.015625 656.25 98.015625 L 93.75 98.015625 C 52.328125 98.015625 18.75 131.59375 18.75 173.015625 Z M 18.75 173.015625 " clip-rule="nonzero"/></clipPath><clipPath id="7b6c2041fb"><path d="M 440 391 L 512 391 L 512 462 L 440 462 Z M 440 391 " clip-rule="nonzero"/></clipPath><clipPath id="358be4b5d5"><path d="M 18.75 173.015625 L 18.75 576.984375 C 18.75 618.40625 52.328125 651.984375 93.75 651.984375 L 656.25 651.984375 C 697.671875 651.984375 731.25 618.40625 731.25 576.984375 L 731.25 173.015625 C 731.25 131.59375 697.671875 98.015625 656.25 98.015625 L 93.75 98.015625 C 52.328125 98.015625 18.75 131.59375 18.75 173.015625 Z M 18.75 173.015625 " clip-rule="nonzero"/></clipPath><clipPath id="12d654289f"><path d="M 467 402 L 496 402 L 496 431 L 467 431 Z M 467 402 " clip-rule="nonzero"/></clipPath><clipPath id="2fa8894b8f"><path d="M 18.75 173.015625 L 18.75 576.984375 C 18.75 618.40625 52.328125 651.984375 93.75 651.984375 L 656.25 651.984375 C 697.671875 651.984375 731.25 618.40625 731.25 576.984375 L 731.25 173.015625 C 731.25 131.59375 697.671875 98.015625 656.25 98.015625 L 93.75 98.015625 C 52.328125 98.015625 18.75 131.59375 18.75 173.015625 Z M 18.75 173.015625 " clip-rule="nonzero"/></clipPath><clipPath id="185909bb76"><path d="M 509 201 L 632 201 L 632 382 L 509 382 Z M 509 201 " clip-rule="nonzero"/></clipPath><clipPath id="0ae5798ecb"><path d="M 18.75 173.015625 L 18.75 576.984375 C 18.75 618.40625 52.328125 651.984375 93.75 651.984375 L 656.25 651.984375 C 697.671875 651.984375 731.25 618.40625 731.25 576.984375 L 731.25 173.015625 C 731.25 131.59375 697.671875 98.015625 656.25 98.015625 L 93.75 98.015625 C 52.328125 98.015625 18.75 131.59375 18.75 173.015625 Z M 18.75 173.015625 " clip-rule="nonzero"/></clipPath><clipPath id="7f221123c7"><path d="M 325 453 L 425 453 L 425 525 L 325 525 Z M 325 453 " clip-rule="nonzero"/></clipPath><clipPath id="315123afae"><path d="M 18.75 173.015625 L 18.75 576.984375 C 18.75 618.40625 52.328125 651.984375 93.75 651.984375 L 656.25 651.984375 C 697.671875 651.984375 731.25 618.40625 731.25 576.984375 L 731.25 173.015625 C 731.25 131.59375 697.671875 98.015625 656.25 98.015625 L 93.75 98.015625 C 52.328125 98.015625 18.75 131.59375 18.75 173.015625 Z M 18.75 173.015625 " clip-rule="nonzero"/></clipPath><clipPath id="c7c94621d9"><path d="M 348 468 L 420 468 L 420 481 L 348 481 Z M 348 468 " clip-rule="nonzero"/></clipPath><clipPath id="ade3d1cbcb"><path d="M 18.75 173.015625 L 18.75 576.984375 C 18.75 618.40625 52.328125 651.984375 93.75 651.984375 L 656.25 651.984375 C 697.671875 651.984375 731.25 618.40625 731.25 576.984375 L 731.25 173.015625 C 731.25 131.59375 697.671875 98.015625 656.25 98.015625 L 93.75 98.015625 C 52.328125 98.015625 18.75 131.59375 18.75 173.015625 Z M 18.75 173.015625 " clip-rule="nonzero"/></clipPath><clipPath id="2aaf3d92f7"><path d="M 440 332 L 498 332 L 498 354 L 440 354 Z M 440 332 " clip-rule="nonzero"/></clipPath><clipPath id="95c34deb32"><path d="M 18.75 173.015625 L 18.75 576.984375 C 18.75 618.40625 52.328125 651.984375 93.75 651.984375 L 656.25 651.984375 C 697.671875 651.984375 731.25 618.40625 731.25 576.984375 L 731.25 173.015625 C 731.25 131.59375 697.671875 98.015625 656.25 98.015625 L 93.75 98.015625 C 52.328125 98.015625 18.75 131.59375 18.75 173.015625 Z M 18.75 173.015625 " clip-rule="nonzero"/></clipPath><clipPath id="c0ccd63757"><path d="M 555 201 L 632 201 L 632 366 L 555 366 Z M 555 201 " clip-rule="nonzero"/></clipPath><clipPath id="f88730265f"><path d="M 18.75 173.015625 L 18.75 576.984375 C 18.75 618.40625 52.328125 651.984375 93.75 651.984375 L 656.25 651.984375 C 697.671875 651.984375 731.25 618.40625 731.25 576.984375 L 731.25 173.015625 C 731.25 131.59375 697.671875 98.015625 656.25 98.015625 L 93.75 98.015625 C 52.328125 98.015625 18.75 131.59375 18.75 173.015625 Z M 18.75 173.015625 " clip-rule="nonzero"/></clipPath><clipPath id="85cd19f803"><path d="M 239 391 L 310 391 L 310 462 L 239 462 Z M 239 391 " clip-rule="nonzero"/></clipPath><clipPath id="f5f3218d89"><path d="M 18.75 173.015625 L 18.75 576.984375 C 18.75 618.40625 52.328125 651.984375 93.75 651.984375 L 656.25 651.984375 C 697.671875 651.984375 731.25 618.40625 731.25 576.984375 L 731.25 173.015625 C 731.25 131.59375 697.671875 98.015625 656.25 98.015625 L 93.75 98.015625 C 52.328125 98.015625 18.75 131.59375 18.75 173.015625 Z M 18.75 173.015625 " clip-rule="nonzero"/></clipPath><clipPath id="067590f1b0"><path d="M 265 402 L 294 402 L 294 431 L 265 431 Z M 265 402 " clip-rule="nonzero"/></clipPath><clipPath id="6ac3bfb77c"><path d="M 18.75 173.015625 L 18.75 576.984375 C 18.75 618.40625 52.328125 651.984375 93.75 651.984375 L 656.25 651.984375 C 697.671875 651.984375 731.25 618.40625 731.25 576.984375 L 731.25 173.015625 C 731.25 131.59375 697.671875 98.015625 656.25 98.015625 L 93.75 98.015625 C 52.328125 98.015625 18.75 131.59375 18.75 173.015625 Z M 18.75 173.015625 " clip-rule="nonzero"/></clipPath><clipPath id="82e99a2945"><path d="M 119 201 L 241 201 L 241 382 L 119 382 Z M 119 201 " clip-rule="nonzero"/></clipPath><clipPath id="06a4bb38a0"><path d="M 18.75 173.015625 L 18.75 576.984375 C 18.75 618.40625 52.328125 651.984375 93.75 651.984375 L 656.25 651.984375 C 697.671875 651.984375 731.25 618.40625 731.25 576.984375 L 731.25 173.015625 C 731.25 131.59375 697.671875 98.015625 656.25 98.015625 L 93.75 98.015625 C 52.328125 98.015625 18.75 131.59375 18.75 173.015625 Z M 18.75 173.015625 " clip-rule="nonzero"/></clipPath><clipPath id="c793eb70f6"><path d="M 252 332 L 310 332 L 310 354 L 252 354 Z M 252 332 " clip-rule="nonzero"/></clipPath><clipPath id="e0b900a587"><path d="M 18.75 173.015625 L 18.75 576.984375 C 18.75 618.40625 52.328125 651.984375 93.75 651.984375 L 656.25 651.984375 C 697.671875 651.984375 731.25 618.40625 731.25 576.984375 L 731.25 173.015625 C 731.25 131.59375 697.671875 98.015625 656.25 98.015625 L 93.75 98.015625 C 52.328125 98.015625 18.75 131.59375 18.75 173.015625 Z M 18.75 173.015625 " clip-rule="nonzero"/></clipPath><clipPath id="d34865ae95"><path d="M 119 201 L 195 201 L 195 366 L 119 366 Z M 119 201 " clip-rule="nonzero"/></clipPath><clipPath id="e536f5cb15"><path d="M 18.75 173.015625 L 18.75 576.984375 C 18.75 618.40625 52.328125 651.984375 93.75 651.984375 L 656.25 651.984375 C 697.671875 651.984375 731.25 618.40625 731.25 576.984375 L 731.25 173.015625 C 731.25 131.59375 697.671875 98.015625 656.25 98.015625 L 93.75 98.015625 C 52.328125 98.015625 18.75 131.59375 18.75 173.015625 Z M 18.75 173.015625 " clip-rule="nonzero"/></clipPath><clipPath id="533e7df68a"><path d="M 61 102 L 690 102 L 690 641 L 61 641 Z M 61 102 " clip-rule="nonzero"/></clipPath><clipPath id="2a8ada2f0f"><path d="M 18.75 173.015625 L 18.75 576.984375 C 18.75 618.40625 52.328125 651.984375 93.75 651.984375 L 656.25 651.984375 C 697.671875 651.984375 731.25 618.40625 731.25 576.984375 L 731.25 173.015625 C 731.25 131.59375 697.671875 98.015625 656.25 98.015625 L 93.75 98.015625 C 52.328125 98.015625 18.75 131.59375 18.75 173.015625 Z M 18.75 173.015625 " clip-rule="nonzero"/></clipPath><clipPath id="1c860ae3b7"><path d="M 578 563 L 704 563 L 704 651 L 578 651 Z M 578 563 " clip-rule="nonzero"/></clipPath><clipPath id="3101619a02"><path d="M 18.75 173.015625 L 18.75 576.984375 C 18.75 618.40625 52.328125 651.984375 93.75 651.984375 L 656.25 651.984375 C 697.671875 651.984375 731.25 618.40625 731.25 576.984375 L 731.25 173.015625 C 731.25 131.59375 697.671875 98.015625 656.25 98.015625 L 93.75 98.015625 C 52.328125 98.015625 18.75 131.59375 18.75 173.015625 Z M 18.75 173.015625 " clip-rule="nonzero"/></clipPath><clipPath id="6dedfe9d12"><path d="M 574 558 L 708 558 L 708 652 L 574 652 Z M 574 558 " clip-rule="nonzero"/></clipPath><clipPath id="fd89f8b428"><path d="M 18.75 173.015625 L 18.75 576.984375 C 18.75 618.40625 52.328125 651.984375 93.75 651.984375 L 656.25 651.984375 C 697.671875 651.984375 731.25 618.40625 731.25 576.984375 L 731.25 173.015625 C 731.25 131.59375 697.671875 98.015625 656.25 98.015625 L 93.75 98.015625 C 52.328125 98.015625 18.75 131.59375 18.75 173.015625 Z M 18.75 173.015625 " clip-rule="nonzero"/></clipPath><clipPath id="b6d48dced4"><path d="M 629 608 L 647 608 L 647 652 L 629 652 Z M 629 608 " clip-rule="nonzero"/></clipPath><clipPath id="2e050c71c2"><path d="M 18.75 173.015625 L 18.75 576.984375 C 18.75 618.40625 52.328125 651.984375 93.75 651.984375 L 656.25 651.984375 C 697.671875 651.984375 731.25 618.40625 731.25 576.984375 L 731.25 173.015625 C 731.25 131.59375 697.671875 98.015625 656.25 98.015625 L 93.75 98.015625 C 52.328125 98.015625 18.75 131.59375 18.75 173.015625 Z M 18.75 173.015625 " clip-rule="nonzero"/></clipPath><clipPath id="8d2c8c53b2"><path d="M 595 600 L 610 600 L 610 648 L 595 648 Z M 595 600 " clip-rule="nonzero"/></clipPath><clipPath id="fc3240f60a"><path d="M 18.75 173.015625 L 18.75 576.984375 C 18.75 618.40625 52.328125 651.984375 93.75 651.984375 L 656.25 651.984375 C 697.671875 651.984375 731.25 618.40625 731.25 576.984375 L 731.25 173.015625 C 731.25 131.59375 697.671875 98.015625 656.25 98.015625 L 93.75 98.015625 C 52.328125 98.015625 18.75 131.59375 18.75 173.015625 Z M 18.75 173.015625 " clip-rule="nonzero"/></clipPath><clipPath id="8b1e89aa30"><path d="M 662 607 L 678 607 L 678 648 L 662 648 Z M 662 607 " clip-rule="nonzero"/></clipPath><clipPath id="d443e1f934"><path d="M 18.75 173.015625 L 18.75 576.984375 C 18.75 618.40625 52.328125 651.984375 93.75 651.984375 L 656.25 651.984375 C 697.671875 651.984375 731.25 618.40625 731.25 576.984375 L 731.25 173.015625 C 731.25 131.59375 697.671875 98.015625 656.25 98.015625 L 93.75 98.015625 C 52.328125 98.015625 18.75 131.59375 18.75 173.015625 Z M 18.75 173.015625 " clip-rule="nonzero"/></clipPath><clipPath id="9a84faa54f"><path d="M 47 563 L 172 563 L 172 651 L 47 651 Z M 47 563 " clip-rule="nonzero"/></clipPath><clipPath id="7fd63bbdec"><path d="M 18.75 173.015625 L 18.75 576.984375 C 18.75 618.40625 52.328125 651.984375 93.75 651.984375 L 656.25 651.984375 C 697.671875 651.984375 731.25 618.40625 731.25 576.984375 L 731.25 173.015625 C 731.25 131.59375 697.671875 98.015625 656.25 98.015625 L 93.75 98.015625 C 52.328125 98.015625 18.75 131.59375 18.75 173.015625 Z M 18.75 173.015625 " clip-rule="nonzero"/></clipPath><clipPath id="9218eb2f5e"><path d="M 43 558 L 177 558 L 177 652 L 43 652 Z M 43 558 " clip-rule="nonzero"/></clipPath><clipPath id="eee72548b0"><path d="M 18.75 173.015625 L 18.75 576.984375 C 18.75 618.40625 52.328125 651.984375 93.75 651.984375 L 656.25 651.984375 C 697.671875 651.984375 731.25 618.40625 731.25 576.984375 L 731.25 173.015625 C 731.25 131.59375 697.671875 98.015625 656.25 98.015625 L 93.75 98.015625 C 52.328125 98.015625 18.75 131.59375 18.75 173.015625 Z M 18.75 173.015625 " clip-rule="nonzero"/></clipPath><clipPath id="d1ed966ffd"><path d="M 104 608 L 122 608 L 122 652 L 104 652 Z M 104 608 " clip-rule="nonzero"/></clipPath><clipPath id="a960f5790a"><path d="M 18.75 173.015625 L 18.75 576.984375 C 18.75 618.40625 52.328125 651.984375 93.75 651.984375 L 656.25 651.984375 C 697.671875 651.984375 731.25 618.40625 731.25 576.984375 L 731.25 173.015625 C 731.25 131.59375 697.671875 98.015625 656.25 98.015625 L 93.75 98.015625 C 52.328125 98.015625 18.75 131.59375 18.75 173.015625 Z M 18.75 173.015625 " clip-rule="nonzero"/></clipPath><clipPath id="90837c081b"><path d="M 140 600 L 155 600 L 155 648 L 140 648 Z M 140 600 " clip-rule="nonzero"/></clipPath><clipPath id="470d5b9ef2"><path d="M 18.75 173.015625 L 18.75 576.984375 C 18.75 618.40625 52.328125 651.984375 93.75 651.984375 L 656.25 651.984375 C 697.671875 651.984375 731.25 618.40625 731.25 576.984375 L 731.25 173.015625 C 731.25 131.59375 697.671875 98.015625 656.25 98.015625 L 93.75 98.015625 C 52.328125 98.015625 18.75 131.59375 18.75 173.015625 Z M 18.75 173.015625 " clip-rule="nonzero"/></clipPath><clipPath id="8e4c1d5d17"><path d="M 72 607 L 89 607 L 89 648 L 72 648 Z M 72 607 " clip-rule="nonzero"/></clipPath><clipPath id="77eeb4518f"><path d="M 18.75 173.015625 L 18.75 576.984375 C 18.75 618.40625 52.328125 651.984375 93.75 651.984375 L 656.25 651.984375 C 697.671875 651.984375 731.25 618.40625 731.25 576.984375 L 731.25 173.015625 C 731.25 131.59375 697.671875 98.015625 656.25 98.015625 L 93.75 98.015625 C 52.328125 98.015625 18.75 131.59375 18.75 173.015625 Z M 18.75 173.015625 " clip-rule="nonzero"/></clipPath><clipPath id="5dc6420019"><path d="M 298 624 L 453 624 L 453 652 L 298 652 Z M 298 624 " clip-rule="nonzero"/></clipPath><clipPath id="a8a272ff7a"><path d="M 18.75 173.015625 L 18.75 576.984375 C 18.75 618.40625 52.328125 651.984375 93.75 651.984375 L 656.25 651.984375 C 697.671875 651.984375 731.25 618.40625 731.25 576.984375 L 731.25 173.015625 C 731.25 131.59375 697.671875 98.015625 656.25 98.015625 L 93.75 98.015625 C 52.328125 98.015625 18.75 131.59375 18.75 173.015625 Z M 18.75 173.015625 " clip-rule="nonzero"/></clipPath><clipPath id="46322e36fe"><path d="M 293 619 L 458 619 L 458 652 L 293 652 Z M 293 619 " clip-rule="nonzero"/></clipPath><clipPath id="ff1fa1ac6c"><path d="M 18.75 173.015625 L 18.75 576.984375 C 18.75 618.40625 52.328125 651.984375 93.75 651.984375 L 656.25 651.984375 C 697.671875 651.984375 731.25 618.40625 731.25 576.984375 L 731.25 173.015625 C 731.25 131.59375 697.671875 98.015625 656.25 98.015625 L 93.75 98.015625 C 52.328125 98.015625 18.75 131.59375 18.75 173.015625 Z M 18.75 173.015625 " clip-rule="nonzero"/></clipPath><clipPath id="2021516453"><path d="M 467 501 L 503 501 L 503 527 L 467 527 Z M 467 501 " clip-rule="nonzero"/></clipPath><clipPath id="459ca93ade"><path d="M 18.75 173.015625 L 18.75 576.984375 C 18.75 618.40625 52.328125 651.984375 93.75 651.984375 L 656.25 651.984375 C 697.671875 651.984375 731.25 618.40625 731.25 576.984375 L 731.25 173.015625 C 731.25 131.59375 697.671875 98.015625 656.25 98.015625 L 93.75 98.015625 C 52.328125 98.015625 18.75 131.59375 18.75 173.015625 Z M 18.75 173.015625 " clip-rule="nonzero"/></clipPath><clipPath id="de290e52f6"><path d="M 259 511 L 491 511 L 491 636 L 259 636 Z M 259 511 " clip-rule="nonzero"/></clipPath><clipPath id="814b484a3a"><path d="M 18.75 173.015625 L 18.75 576.984375 C 18.75 618.40625 52.328125 651.984375 93.75 651.984375 L 656.25 651.984375 C 697.671875 651.984375 731.25 618.40625 731.25 576.984375 L 731.25 173.015625 C 731.25 131.59375 697.671875 98.015625 656.25 98.015625 L 93.75 98.015625 C 52.328125 98.015625 18.75 131.59375 18.75 173.015625 Z M 18.75 173.015625 " clip-rule="nonzero"/></clipPath><clipPath id="c5412bcb34"><path d="M 247 501 L 283 501 L 283 527 L 247 527 Z M 247 501 " clip-rule="nonzero"/></clipPath><clipPath id="c1aee27182"><path d="M 18.75 173.015625 L 18.75 576.984375 C 18.75 618.40625 52.328125 651.984375 93.75 651.984375 L 656.25 651.984375 C 697.671875 651.984375 731.25 618.40625 731.25 576.984375 L 731.25 173.015625 C 731.25 131.59375 697.671875 98.015625 656.25 98.015625 L 93.75 98.015625 C 52.328125 98.015625 18.75 131.59375 18.75 173.015625 Z M 18.75 173.015625 " clip-rule="nonzero"/></clipPath><clipPath id="a379dd8029"><path d="M 328 573 L 423 573 L 423 631 L 328 631 Z M 328 573 " clip-rule="nonzero"/></clipPath><clipPath id="7a68fb32c9"><path d="M 18.75 173.015625 L 18.75 576.984375 C 18.75 618.40625 52.328125 651.984375 93.75 651.984375 L 656.25 651.984375 C 697.671875 651.984375 731.25 618.40625 731.25 576.984375 L 731.25 173.015625 C 731.25 131.59375 697.671875 98.015625 656.25 98.015625 L 93.75 98.015625 C 52.328125 98.015625 18.75 131.59375 18.75 173.015625 Z M 18.75 173.015625 " clip-rule="nonzero"/></clipPath><clipPath id="076426ce62"><path d="M 323 569 L 427 569 L 427 635 L 323 635 Z M 323 569 " clip-rule="nonzero"/></clipPath><clipPath id="668a57b548"><path d="M 18.75 173.015625 L 18.75 576.984375 C 18.75 618.40625 52.328125 651.984375 93.75 651.984375 L 656.25 651.984375 C 697.671875 651.984375 731.25 618.40625 731.25 576.984375 L 731.25 173.015625 C 731.25 131.59375 697.671875 98.015625 656.25 98.015625 L 93.75 98.015625 C 52.328125 98.015625 18.75 131.59375 18.75 173.015625 Z M 18.75 173.015625 " clip-rule="nonzero"/></clipPath><clipPath id="759c712ae5"><path d="M 370 578 L 380 578 L 380 612 L 370 612 Z M 370 578 " clip-rule="nonzero"/></clipPath><clipPath id="51cdc4c773"><path d="M 18.75 173.015625 L 18.75 576.984375 C 18.75 618.40625 52.328125 651.984375 93.75 651.984375 L 656.25 651.984375 C 697.671875 651.984375 731.25 618.40625 731.25 576.984375 L 731.25 173.015625 C 731.25 131.59375 697.671875 98.015625 656.25 98.015625 L 93.75 98.015625 C 52.328125 98.015625 18.75 131.59375 18.75 173.015625 Z M 18.75 173.015625 " clip-rule="nonzero"/></clipPath><clipPath id="38c5a14cea"><path d="M 505 201 L 631 201 L 631 386 L 505 386 Z M 505 201 " clip-rule="nonzero"/></clipPath><clipPath id="5f4c5a1e9f"><path d="M 18.75 173.015625 L 18.75 576.984375 C 18.75 618.40625 52.328125 651.984375 93.75 651.984375 L 656.25 651.984375 C 697.671875 651.984375 731.25 618.40625 731.25 576.984375 L 731.25 173.015625 C 731.25 131.59375 697.671875 98.015625 656.25 98.015625 L 93.75 98.015625 C 52.328125 98.015625 18.75 131.59375 18.75 173.015625 Z M 18.75 173.015625 " clip-rule="nonzero"/></clipPath><clipPath id="88e578e268"><path d="M 120 201 L 246 201 L 246 386 L 120 386 Z M 120 201 " clip-rule="nonzero"/></clipPath><clipPath id="5eb6b96727"><path d="M 18.75 173.015625 L 18.75 576.984375 C 18.75 618.40625 52.328125 651.984375 93.75 651.984375 L 656.25 651.984375 C 697.671875 651.984375 731.25 618.40625 731.25 576.984375 L 731.25 173.015625 C 731.25 131.59375 697.671875 98.015625 656.25 98.015625 L 93.75 98.015625 C 52.328125 98.015625 18.75 131.59375 18.75 173.015625 Z M 18.75 173.015625 " clip-rule="nonzero"/></clipPath></defs><g clip-path="url(#12b47a1359)"><g clip-path="url(#eff49b7095)"><path fill="#1b120d" d="M 736.0625 640.132812 L 14.511719 640.132812 C 12.046875 640.132812 10.039062 638.121094 10.039062 635.652344 C 10.039062 633.1875 12.046875 631.175781 14.511719 631.175781 L 735.972656 631.175781 C 738.4375 631.175781 740.445312 633.1875 740.445312 635.652344 C 740.539062 638.121094 738.527344 640.132812 736.0625 640.132812 Z M 736.0625 640.132812 " fill-opacity="1" fill-rule="nonzero"/></g></g><g clip-path="url(#b2f3e25886)"><g clip-path="url(#ff015d213d)"><path fill="#ffffff" d="M 667.03125 460.535156 C 604.847656 456.054688 608.867188 415.839844 608.867188 415.839844 C 689.402344 364.109375 704.925781 217.140625 659.359375 129.488281 C 649.683594 110.933594 627.859375 102.433594 608.226562 109.65625 C 547.320312 132.230469 495.730469 195.570312 458.929688 256.714844 C 428.886719 240.171875 375.289062 239.714844 375.289062 239.714844 C 375.289062 239.714844 321.6875 240.171875 291.554688 256.804688 C 254.847656 195.660156 203.164062 132.230469 142.351562 109.65625 C 122.71875 102.433594 100.894531 110.933594 91.214844 129.488281 C 45.648438 217.140625 61.171875 364.109375 141.710938 415.839844 C 141.710938 415.839844 145.726562 455.964844 83.542969 460.535156 C 83.542969 460.535156 90.210938 483.199219 120.617188 484.390625 C 120.617188 484.390625 106.554688 497.183594 88.75 499.195312 C 88.75 499.195312 94.503906 519.304688 123.082031 520.308594 C 123.082031 520.308594 110.300781 530.636719 95.78125 530.089844 C 95.78125 530.089844 101.257812 549.191406 121.621094 558.695312 C 121.621094 558.695312 126.371094 615.363281 178.785156 635.746094 L 571.792969 635.746094 C 624.207031 615.457031 628.953125 558.695312 628.953125 558.695312 C 649.226562 549.191406 654.796875 530.089844 654.796875 530.089844 C 640.277344 530.636719 627.492188 520.308594 627.492188 520.308594 C 656.074219 519.304688 661.828125 499.195312 661.828125 499.195312 C 644.019531 497.183594 629.957031 484.390625 629.957031 484.390625 C 660.457031 483.199219 667.03125 460.535156 667.03125 460.535156 Z M 667.03125 460.535156 " fill-opacity="1" fill-rule="nonzero"/><path fill="#e1a369" d="M 667.03125 460.535156 C 604.847656 456.054688 608.867188 415.839844 608.867188 415.839844 C 689.402344 364.109375 704.925781 217.140625 659.359375 129.488281 C 649.683594 110.933594 627.859375 102.433594 608.226562 109.65625 C 547.320312 132.230469 495.730469 195.570312 458.929688 256.714844 C 428.886719 240.171875 375.289062 239.714844 375.289062 239.714844 C 375.289062 239.714844 321.6875 240.171875 291.554688 256.804688 C 254.847656 195.660156 203.164062 132.230469 142.351562 109.65625 C 122.71875 102.433594 100.894531 110.933594 91.214844 129.488281 C 45.648438 217.140625 61.171875 364.109375 141.710938 415.839844 C 141.710938 415.839844 145.726562 455.964844 83.542969 460.535156 C 83.542969 460.535156 90.210938 483.199219 120.617188 484.390625 C 120.617188 484.390625 106.554688 497.183594 88.75 499.195312 C 88.75 499.195312 94.503906 519.304688 123.082031 520.308594 C 123.082031 520.308594 110.300781 530.636719 95.78125 530.089844 C 95.78125 530.089844 101.257812 549.191406 121.621094 558.695312 C 121.621094 558.695312 126.371094 615.363281 178.785156 635.746094 L 298.769531 635.746094 L 282.789062 635.746094 C 151.9375 638.03125 128.5625 526.617188 152.210938 490.054688 C 166.914062 467.390625 197.960938 463.460938 228.183594 465.5625 C 246.628906 466.839844 268.726562 474.609375 291.554688 469.675781 C 323.878906 462.726562 351.730469 459.527344 333.648438 382.753906 C 321.960938 333.125 347.894531 301.867188 359.398438 285.597656 C 367.160156 274.628906 383.414062 274.628906 391.269531 285.597656 C 402.773438 301.773438 416.46875 331.753906 417.019531 382.753906 C 417.65625 446.277344 426.789062 462.726562 459.113281 469.675781 C 481.941406 474.609375 504.039062 466.839844 522.484375 465.5625 C 552.707031 463.367188 583.753906 467.296875 598.457031 490.054688 C 622.105469 526.523438 592.246094 637.9375 461.394531 635.746094 L 451.898438 635.746094 L 571.882812 635.746094 C 624.296875 615.457031 629.046875 558.695312 629.046875 558.695312 C 649.316406 549.191406 654.886719 530.089844 654.886719 530.089844 C 640.367188 530.636719 627.585938 520.308594 627.585938 520.308594 C 656.164062 519.304688 661.917969 499.195312 661.917969 499.195312 C 644.113281 497.183594 630.050781 484.390625 630.050781 484.390625 C 660.457031 483.199219 667.03125 460.535156 667.03125 460.535156 Z M 667.03125 460.535156 " fill-opacity="1" fill-rule="nonzero"/></g></g><g clip-path="url(#7b6c2041fb)"><g clip-path="url(#358be4b5d5)"><path fill="#1b120d" d="M 511.253906 426.535156 C 511.253906 427.6875 511.195312 428.835938 511.082031 429.984375 C 510.96875 431.128906 510.800781 432.269531 510.578125 433.398438 C 510.351562 434.527344 510.074219 435.644531 509.738281 436.75 C 509.402344 437.851562 509.015625 438.933594 508.574219 440 C 508.136719 441.066406 507.644531 442.105469 507.101562 443.121094 C 506.558594 444.136719 505.96875 445.125 505.328125 446.082031 C 504.6875 447.042969 504.003906 447.964844 503.273438 448.855469 C 502.542969 449.75 501.769531 450.601562 500.957031 451.414062 C 500.140625 452.230469 499.289062 453.003906 498.398438 453.734375 C 497.507812 454.464844 496.585938 455.152344 495.628906 455.792969 C 494.671875 456.433594 493.683594 457.023438 492.667969 457.566406 C 491.652344 458.109375 490.613281 458.601562 489.550781 459.042969 C 488.488281 459.484375 487.402344 459.871094 486.300781 460.207031 C 485.199219 460.542969 484.085938 460.820312 482.957031 461.046875 C 481.824219 461.269531 480.6875 461.441406 479.542969 461.554688 C 478.398438 461.664062 477.25 461.722656 476.097656 461.722656 C 474.945312 461.722656 473.796875 461.664062 472.652344 461.554688 C 471.503906 461.441406 470.367188 461.269531 469.238281 461.046875 C 468.109375 460.820312 466.992188 460.542969 465.890625 460.207031 C 464.789062 459.871094 463.707031 459.484375 462.644531 459.042969 C 461.578125 458.601562 460.539062 458.109375 459.523438 457.566406 C 458.507812 457.023438 457.523438 456.433594 456.566406 455.792969 C 455.609375 455.152344 454.683594 454.464844 453.792969 453.734375 C 452.90625 453.003906 452.050781 452.230469 451.238281 451.414062 C 450.425781 450.601562 449.652344 449.75 448.921875 448.855469 C 448.191406 447.964844 447.507812 447.042969 446.867188 446.082031 C 446.226562 445.125 445.636719 444.136719 445.09375 443.121094 C 444.550781 442.105469 444.058594 441.066406 443.617188 440 C 443.175781 438.933594 442.789062 437.851562 442.457031 436.75 C 442.121094 435.644531 441.839844 434.527344 441.617188 433.398438 C 441.390625 432.269531 441.222656 431.128906 441.109375 429.984375 C 441 428.835938 440.941406 427.6875 440.941406 426.535156 C 440.941406 425.382812 441 424.230469 441.109375 423.085938 C 441.222656 421.9375 441.390625 420.800781 441.617188 419.667969 C 441.839844 418.539062 442.121094 417.421875 442.457031 416.320312 C 442.789062 415.214844 443.175781 414.132812 443.617188 413.066406 C 444.058594 412.003906 444.550781 410.960938 445.09375 409.945312 C 445.636719 408.929688 446.226562 407.941406 446.867188 406.984375 C 447.507812 406.027344 448.191406 405.101562 448.921875 404.210938 C 449.652344 403.320312 450.425781 402.464844 451.238281 401.652344 C 452.050781 400.835938 452.90625 400.0625 453.792969 399.332031 C 454.683594 398.601562 455.609375 397.914062 456.566406 397.277344 C 457.523438 396.636719 458.507812 396.042969 459.523438 395.5 C 460.539062 394.957031 461.578125 394.464844 462.644531 394.023438 C 463.707031 393.582031 464.789062 393.195312 465.890625 392.859375 C 466.992188 392.527344 468.109375 392.246094 469.238281 392.023438 C 470.367188 391.796875 471.503906 391.628906 472.652344 391.515625 C 473.796875 391.402344 474.945312 391.34375 476.097656 391.34375 C 477.25 391.34375 478.398438 391.402344 479.542969 391.515625 C 480.6875 391.628906 481.828125 391.796875 482.957031 392.023438 C 484.085938 392.246094 485.199219 392.527344 486.300781 392.859375 C 487.402344 393.195312 488.488281 393.582031 489.550781 394.023438 C 490.613281 394.464844 491.652344 394.957031 492.667969 395.5 C 493.683594 396.042969 494.671875 396.636719 495.628906 397.277344 C 496.585938 397.914062 497.507812 398.601562 498.398438 399.332031 C 499.289062 400.0625 500.140625 400.835938 500.957031 401.652344 C 501.769531 402.464844 502.542969 403.320312 503.273438 404.210938 C 504.003906 405.101562 504.6875 406.027344 505.328125 406.984375 C 505.96875 407.941406 506.558594 408.929688 507.101562 409.945312 C 507.644531 410.960938 508.136719 412.003906 508.574219 413.066406 C 509.015625 414.132812 509.402344 415.214844 509.738281 416.320312 C 510.074219 417.421875 510.351562 418.539062 510.578125 419.667969 C 510.800781 420.800781 510.96875 421.9375 511.082031 423.085938 C 511.195312 424.230469 511.253906 425.382812 511.253906 426.535156 Z M 511.253906 426.535156 " fill-opacity="1" fill-rule="nonzero"/></g></g><g clip-path="url(#12d654289f)"><g clip-path="url(#2fa8894b8f)"><path fill="#ffffff" d="M 495.363281 416.207031 C 495.363281 417.117188 495.273438 418.019531 495.097656 418.917969 C 494.917969 419.8125 494.65625 420.679688 494.308594 421.523438 C 493.957031 422.363281 493.53125 423.164062 493.023438 423.925781 C 492.519531 424.683594 491.941406 425.382812 491.296875 426.03125 C 490.652344 426.675781 489.953125 427.25 489.195312 427.757812 C 488.4375 428.265625 487.636719 428.691406 486.796875 429.039062 C 485.953125 429.390625 485.085938 429.652344 484.191406 429.832031 C 483.296875 430.007812 482.394531 430.097656 481.484375 430.097656 C 480.574219 430.097656 479.671875 430.007812 478.777344 429.832031 C 477.882812 429.652344 477.015625 429.390625 476.171875 429.039062 C 475.332031 428.691406 474.53125 428.265625 473.773438 427.757812 C 473.015625 427.25 472.316406 426.675781 471.671875 426.03125 C 471.027344 425.382812 470.449219 424.683594 469.945312 423.925781 C 469.4375 423.164062 469.011719 422.363281 468.660156 421.523438 C 468.3125 420.679688 468.050781 419.8125 467.871094 418.917969 C 467.695312 418.019531 467.605469 417.117188 467.605469 416.207031 C 467.605469 415.292969 467.695312 414.390625 467.871094 413.496094 C 468.050781 412.601562 468.3125 411.730469 468.660156 410.890625 C 469.011719 410.046875 469.4375 409.246094 469.945312 408.488281 C 470.449219 407.730469 471.027344 407.027344 471.671875 406.382812 C 472.3125 405.738281 473.015625 405.160156 473.773438 404.65625 C 474.53125 404.148438 475.332031 403.71875 476.171875 403.371094 C 477.015625 403.023438 477.882812 402.757812 478.777344 402.582031 C 479.671875 402.402344 480.574219 402.3125 481.484375 402.3125 C 482.394531 402.3125 483.296875 402.402344 484.191406 402.582031 C 485.085938 402.757812 485.953125 403.023438 486.796875 403.371094 C 487.636719 403.71875 488.4375 404.148438 489.195312 404.65625 C 489.953125 405.160156 490.652344 405.738281 491.296875 406.382812 C 491.941406 407.027344 492.519531 407.730469 493.023438 408.488281 C 493.53125 409.246094 493.957031 410.046875 494.308594 410.890625 C 494.65625 411.730469 494.917969 412.601562 495.097656 413.496094 C 495.273438 414.390625 495.363281 415.292969 495.363281 416.207031 Z M 495.363281 416.207031 " fill-opacity="1" fill-rule="nonzero"/></g></g><g clip-path="url(#185909bb76)"><g clip-path="url(#0ae5798ecb)"><path fill="#f2d5d4" d="M 608.042969 365.84375 C 603.933594 371.511719 599.1875 376.628906 593.796875 381.292969 C 599.644531 374.253906 602.929688 365.9375 602.472656 355.882812 C 594.621094 359.722656 586.492188 360.816406 578.277344 360.179688 C 588.503906 349.394531 593.160156 336.230469 588.960938 319.507812 C 579.828125 327.273438 568.324219 330.75 555.539062 331.9375 C 558.734375 320.785156 564.394531 311.738281 573.164062 305.246094 C 562.296875 305.066406 552.617188 308.539062 543.484375 314.296875 C 551.613281 293.089844 563.117188 275.542969 580.742188 264.210938 C 557.730469 259.730469 541.386719 268.503906 528.511719 284.132812 C 526.136719 278.375 525.3125 272.617188 525.863281 266.859375 C 518.832031 267.410156 513.535156 269.695312 509.699219 273.625 C 509.699219 273.625 526.5 234.140625 555.996094 213.667969 C 568.871094 204.710938 584.121094 199.40625 601.46875 202.605469 C 628.40625 207.632812 649.40625 309.179688 608.042969 365.84375 Z M 608.042969 365.84375 " fill-opacity="1" fill-rule="nonzero"/></g></g><g clip-path="url(#7f221123c7)"><g clip-path="url(#315123afae)"><path fill="#1b120d" d="M 424.6875 475.339844 C 424.6875 487.222656 402.589844 524.238281 375.289062 524.238281 C 347.984375 524.238281 325.886719 487.132812 325.886719 475.339844 C 325.886719 463.460938 347.984375 453.863281 375.289062 453.863281 C 402.589844 453.863281 424.6875 463.460938 424.6875 475.339844 Z M 424.6875 475.339844 " fill-opacity="1" fill-rule="nonzero"/></g></g><g clip-path="url(#c7c94621d9)"><g clip-path="url(#ade3d1cbcb)"><path fill="#ffffff" d="M 419.574219 474.152344 C 419.574219 474.351562 419.519531 474.546875 419.402344 474.742188 C 419.289062 474.941406 419.121094 475.136719 418.894531 475.328125 C 418.667969 475.523438 418.386719 475.714844 418.050781 475.902344 C 417.710938 476.09375 417.320312 476.277344 416.878906 476.460938 C 416.433594 476.644531 415.9375 476.820312 415.390625 476.996094 C 414.84375 477.171875 414.25 477.339844 413.605469 477.503906 C 412.957031 477.667969 412.269531 477.828125 411.53125 477.980469 C 410.796875 478.132812 410.019531 478.277344 409.199219 478.417969 C 408.378906 478.558594 407.519531 478.691406 406.621094 478.816406 C 405.722656 478.941406 404.792969 479.058594 403.828125 479.167969 C 402.863281 479.277344 401.871094 479.378906 400.847656 479.472656 C 399.824219 479.566406 398.777344 479.648438 397.703125 479.726562 C 396.632812 479.800781 395.539062 479.867188 394.429688 479.925781 C 393.320312 479.984375 392.195312 480.03125 391.058594 480.070312 C 389.917969 480.109375 388.773438 480.136719 387.617188 480.15625 C 386.464844 480.175781 385.304688 480.183594 384.144531 480.183594 C 382.984375 480.183594 381.828125 480.175781 380.671875 480.15625 C 379.519531 480.136719 378.371094 480.109375 377.234375 480.070312 C 376.09375 480.03125 374.972656 479.984375 373.859375 479.925781 C 372.75 479.867188 371.660156 479.800781 370.585938 479.726562 C 369.515625 479.648438 368.46875 479.566406 367.445312 479.472656 C 366.421875 479.378906 365.425781 479.277344 364.460938 479.167969 C 363.496094 479.058594 362.566406 478.941406 361.667969 478.816406 C 360.773438 478.691406 359.914062 478.558594 359.09375 478.417969 C 358.273438 478.277344 357.496094 478.132812 356.757812 477.980469 C 356.023438 477.828125 355.332031 477.667969 354.6875 477.503906 C 354.042969 477.339844 353.445312 477.171875 352.898438 476.996094 C 352.351562 476.820312 351.855469 476.644531 351.414062 476.460938 C 350.96875 476.277344 350.578125 476.09375 350.242188 475.902344 C 349.90625 475.714844 349.625 475.523438 349.398438 475.328125 C 349.171875 475.136719 349 474.941406 348.886719 474.742188 C 348.773438 474.546875 348.714844 474.351562 348.714844 474.152344 C 348.714844 473.957031 348.773438 473.757812 348.886719 473.5625 C 349 473.363281 349.171875 473.167969 349.398438 472.976562 C 349.625 472.78125 349.90625 472.589844 350.242188 472.402344 C 350.578125 472.210938 350.96875 472.027344 351.414062 471.84375 C 351.855469 471.660156 352.351562 471.484375 352.898438 471.308594 C 353.445312 471.132812 354.042969 470.964844 354.6875 470.800781 C 355.332031 470.636719 356.023438 470.476562 356.757812 470.324219 C 357.496094 470.171875 358.273438 470.027344 359.09375 469.886719 C 359.914062 469.746094 360.773438 469.613281 361.667969 469.488281 C 362.566406 469.363281 363.496094 469.246094 364.460938 469.136719 C 365.425781 469.027344 366.421875 468.925781 367.445312 468.832031 C 368.46875 468.738281 369.515625 468.65625 370.585938 468.578125 C 371.660156 468.503906 372.75 468.4375 373.859375 468.378906 C 374.972656 468.324219 376.09375 468.273438 377.234375 468.234375 C 378.371094 468.199219 379.519531 468.167969 380.671875 468.148438 C 381.828125 468.128906 382.984375 468.121094 384.144531 468.121094 C 385.304688 468.121094 386.464844 468.128906 387.617188 468.148438 C 388.773438 468.167969 389.917969 468.199219 391.058594 468.234375 C 392.195312 468.273438 393.320312 468.324219 394.429688 468.378906 C 395.539062 468.4375 396.632812 468.503906 397.703125 468.578125 C 398.777344 468.65625 399.824219 468.738281 400.847656 468.832031 C 401.871094 468.925781 402.863281 469.027344 403.828125 469.136719 C 404.792969 469.246094 405.722656 469.363281 406.621094 469.488281 C 407.519531 469.613281 408.378906 469.746094 409.199219 469.886719 C 410.019531 470.027344 410.796875 470.171875 411.53125 470.324219 C 412.269531 470.476562 412.957031 470.636719 413.605469 470.800781 C 414.25 470.964844 414.84375 471.136719 415.390625 471.308594 C 415.9375 471.484375 416.433594 471.660156 416.878906 471.84375 C 417.320312 472.027344 417.710938 472.210938 418.050781 472.402344 C 418.386719 472.589844 418.667969 472.78125 418.894531 472.976562 C 419.121094 473.167969 419.289062 473.363281 419.402344 473.5625 C 419.519531 473.757812 419.574219 473.957031 419.574219 474.152344 Z M 419.574219 474.152344 " fill-opacity="1" fill-rule="nonzero"/></g></g><g clip-path="url(#2aaf3d92f7)"><g clip-path="url(#95c34deb32)"><path fill="#1b120d" d="M 443.222656 341.257812 C 443.589844 340.984375 443.863281 340.800781 444.046875 340.617188 C 444.320312 340.4375 444.59375 340.253906 444.777344 340.070312 C 445.234375 339.707031 445.78125 339.429688 446.238281 339.066406 C 447.242188 338.425781 448.246094 337.878906 449.25 337.328125 C 450.253906 336.78125 451.351562 336.324219 452.355469 335.867188 C 453.453125 335.410156 454.457031 335.042969 455.550781 334.679688 C 459.84375 333.214844 464.5 332.394531 469.15625 332.484375 C 473.8125 332.574219 478.5625 333.308594 482.855469 335.042969 C 485.046875 335.683594 487.054688 336.871094 489.15625 337.878906 C 491.164062 338.972656 492.988281 340.253906 494.90625 341.441406 C 497.921875 343.359375 498.832031 347.382812 496.917969 350.398438 C 495 353.414062 490.980469 354.328125 487.96875 352.410156 L 487.144531 351.859375 C 485.683594 350.945312 484.40625 349.851562 482.945312 349.027344 C 481.484375 348.296875 480.023438 347.382812 478.472656 346.925781 C 475.457031 345.644531 472.261719 345.097656 469.066406 344.914062 C 465.871094 344.824219 462.582031 345.28125 459.476562 346.285156 L 457.105469 347.109375 C 456.375 347.472656 455.550781 347.75 454.820312 348.113281 C 454.089844 348.480469 453.359375 348.84375 452.628906 349.300781 C 452.265625 349.484375 451.992188 349.757812 451.625 349.941406 C 451.441406 350.03125 451.261719 350.125 451.167969 350.214844 L 450.804688 350.488281 L 450.4375 350.765625 C 447.699219 352.683594 443.953125 351.953125 442.039062 349.210938 C 440.210938 346.835938 440.757812 343.269531 443.222656 341.257812 Z M 443.222656 341.257812 " fill-opacity="1" fill-rule="nonzero"/></g></g><g clip-path="url(#c0ccd63757)"><g clip-path="url(#f88730265f)"><path fill="#ffffff" d="M 608.042969 365.84375 C 623.203125 278.832031 599.550781 219.699219 555.902344 213.667969 C 568.777344 204.710938 584.027344 199.40625 601.378906 202.605469 C 628.40625 207.632812 649.40625 309.179688 608.042969 365.84375 Z M 608.042969 365.84375 " fill-opacity="1" fill-rule="nonzero"/></g></g><g clip-path="url(#85cd19f803)"><g clip-path="url(#f5f3218d89)"><path fill="#1b120d" d="M 309.632812 426.535156 C 309.632812 427.6875 309.578125 428.835938 309.464844 429.984375 C 309.351562 431.128906 309.183594 432.269531 308.957031 433.398438 C 308.734375 434.527344 308.453125 435.644531 308.121094 436.75 C 307.785156 437.851562 307.398438 438.933594 306.957031 440 C 306.519531 441.066406 306.027344 442.105469 305.484375 443.121094 C 304.941406 444.136719 304.347656 445.125 303.710938 446.082031 C 303.070312 447.042969 302.386719 447.964844 301.65625 448.855469 C 300.925781 449.75 300.152344 450.601562 299.335938 451.414062 C 298.523438 452.230469 297.671875 453.003906 296.78125 453.734375 C 295.890625 454.464844 294.96875 455.152344 294.011719 455.792969 C 293.054688 456.433594 292.066406 457.023438 291.050781 457.566406 C 290.035156 458.109375 288.996094 458.601562 287.933594 459.042969 C 286.867188 459.484375 285.785156 459.871094 284.683594 460.207031 C 283.582031 460.542969 282.464844 460.820312 281.335938 461.046875 C 280.207031 461.269531 279.070312 461.441406 277.925781 461.554688 C 276.777344 461.664062 275.628906 461.722656 274.480469 461.722656 C 273.328125 461.722656 272.179688 461.664062 271.03125 461.554688 C 269.886719 461.441406 268.75 461.269531 267.621094 461.046875 C 266.492188 460.820312 265.375 460.542969 264.273438 460.207031 C 263.171875 459.871094 262.089844 459.484375 261.027344 459.042969 C 259.960938 458.601562 258.921875 458.109375 257.90625 457.566406 C 256.890625 457.023438 255.90625 456.433594 254.949219 455.792969 C 253.992188 455.152344 253.066406 454.464844 252.175781 453.734375 C 251.285156 453.003906 250.433594 452.230469 249.621094 451.414062 C 248.804688 450.601562 248.035156 449.75 247.304688 448.855469 C 246.574219 447.964844 245.886719 447.042969 245.25 446.082031 C 244.609375 445.125 244.015625 444.136719 243.476562 443.121094 C 242.933594 442.105469 242.441406 441.066406 242 440 C 241.558594 438.933594 241.171875 437.851562 240.835938 436.75 C 240.503906 435.644531 240.222656 434.527344 240 433.398438 C 239.773438 432.269531 239.605469 431.128906 239.492188 429.984375 C 239.378906 428.835938 239.324219 427.6875 239.324219 426.535156 C 239.324219 425.382812 239.378906 424.230469 239.492188 423.085938 C 239.605469 421.9375 239.773438 420.800781 240 419.667969 C 240.222656 418.539062 240.503906 417.421875 240.835938 416.320312 C 241.171875 415.214844 241.558594 414.132812 242 413.066406 C 242.441406 412.003906 242.933594 410.960938 243.476562 409.945312 C 244.015625 408.929688 244.609375 407.941406 245.25 406.984375 C 245.886719 406.027344 246.574219 405.101562 247.304688 404.210938 C 248.035156 403.320312 248.804688 402.464844 249.621094 401.652344 C 250.433594 400.835938 251.285156 400.0625 252.175781 399.332031 C 253.066406 398.601562 253.992188 397.914062 254.949219 397.277344 C 255.90625 396.636719 256.890625 396.042969 257.90625 395.5 C 258.921875 394.957031 259.960938 394.464844 261.027344 394.023438 C 262.089844 393.582031 263.171875 393.195312 264.273438 392.859375 C 265.375 392.527344 266.492188 392.246094 267.621094 392.023438 C 268.75 391.796875 269.886719 391.628906 271.03125 391.515625 C 272.179688 391.402344 273.328125 391.34375 274.480469 391.34375 C 275.628906 391.34375 276.777344 391.402344 277.925781 391.515625 C 279.070312 391.628906 280.207031 391.796875 281.335938 392.023438 C 282.464844 392.246094 283.582031 392.527344 284.683594 392.859375 C 285.785156 393.195312 286.867188 393.582031 287.933594 394.023438 C 288.996094 394.464844 290.035156 394.957031 291.050781 395.5 C 292.066406 396.042969 293.054688 396.636719 294.011719 397.277344 C 294.96875 397.914062 295.890625 398.601562 296.78125 399.332031 C 297.671875 400.0625 298.523438 400.835938 299.335938 401.652344 C 300.152344 402.464844 300.925781 403.320312 301.65625 404.210938 C 302.386719 405.101562 303.070312 406.027344 303.710938 406.984375 C 304.347656 407.941406 304.941406 408.929688 305.484375 409.945312 C 306.027344 410.960938 306.519531 412.003906 306.957031 413.066406 C 307.398438 414.132812 307.785156 415.214844 308.121094 416.320312 C 308.453125 417.421875 308.734375 418.539062 308.957031 419.667969 C 309.183594 420.800781 309.351562 421.9375 309.464844 423.085938 C 309.578125 424.230469 309.632812 425.382812 309.632812 426.535156 Z M 309.632812 426.535156 " fill-opacity="1" fill-rule="nonzero"/></g></g><g clip-path="url(#067590f1b0)"><g clip-path="url(#6ac3bfb77c)"><path fill="#ffffff" d="M 293.65625 416.207031 C 293.65625 417.117188 293.566406 418.019531 293.386719 418.917969 C 293.210938 419.8125 292.945312 420.679688 292.597656 421.523438 C 292.25 422.363281 291.820312 423.164062 291.316406 423.925781 C 290.808594 424.683594 290.234375 425.382812 289.589844 426.03125 C 288.945312 426.675781 288.242188 427.25 287.484375 427.757812 C 286.726562 428.265625 285.929688 428.691406 285.085938 429.039062 C 284.246094 429.390625 283.375 429.652344 282.484375 429.832031 C 281.589844 430.007812 280.6875 430.097656 279.773438 430.097656 C 278.863281 430.097656 277.960938 430.007812 277.066406 429.832031 C 276.171875 429.652344 275.304688 429.390625 274.464844 429.039062 C 273.621094 428.691406 272.820312 428.265625 272.0625 427.757812 C 271.304688 427.25 270.605469 426.675781 269.960938 426.03125 C 269.316406 425.382812 268.742188 424.683594 268.234375 423.925781 C 267.726562 423.164062 267.300781 422.363281 266.953125 421.523438 C 266.601562 420.679688 266.339844 419.8125 266.164062 418.917969 C 265.984375 418.019531 265.894531 417.117188 265.894531 416.207031 C 265.894531 415.292969 265.984375 414.390625 266.164062 413.496094 C 266.339844 412.601562 266.601562 411.730469 266.953125 410.890625 C 267.300781 410.046875 267.726562 409.246094 268.234375 408.488281 C 268.742188 407.730469 269.316406 407.027344 269.960938 406.382812 C 270.605469 405.738281 271.304688 405.160156 272.0625 404.65625 C 272.820312 404.148438 273.621094 403.71875 274.464844 403.371094 C 275.304688 403.023438 276.171875 402.757812 277.066406 402.582031 C 277.960938 402.402344 278.863281 402.3125 279.773438 402.3125 C 280.6875 402.3125 281.589844 402.402344 282.484375 402.582031 C 283.375 402.757812 284.246094 403.023438 285.085938 403.371094 C 285.929688 403.71875 286.726562 404.148438 287.484375 404.65625 C 288.242188 405.160156 288.945312 405.738281 289.589844 406.382812 C 290.234375 407.027344 290.808594 407.730469 291.316406 408.488281 C 291.820312 409.246094 292.25 410.046875 292.597656 410.890625 C 292.945312 411.730469 293.210938 412.601562 293.386719 413.496094 C 293.566406 414.390625 293.65625 415.292969 293.65625 416.207031 Z M 293.65625 416.207031 " fill-opacity="1" fill-rule="nonzero"/></g></g><g clip-path="url(#82e99a2945)"><g clip-path="url(#06a4bb38a0)"><path fill="#f2d5d4" d="M 142.53125 365.84375 C 146.640625 371.511719 151.390625 376.628906 156.777344 381.292969 C 150.933594 374.253906 147.644531 365.9375 148.101562 355.882812 C 155.957031 359.722656 164.082031 360.816406 172.300781 360.179688 C 162.074219 349.394531 157.417969 336.230469 161.617188 319.507812 C 170.746094 327.273438 182.253906 330.75 195.035156 331.9375 C 191.839844 320.785156 186.179688 311.738281 177.414062 305.246094 C 188.28125 305.066406 197.960938 308.539062 207.089844 314.296875 C 198.964844 293.089844 187.457031 275.542969 169.835938 264.210938 C 192.84375 259.730469 209.191406 268.503906 222.066406 284.132812 C 224.441406 278.375 225.261719 272.617188 224.714844 266.859375 C 231.746094 267.410156 237.039062 269.695312 240.875 273.625 C 240.875 273.625 224.074219 234.140625 194.582031 213.667969 C 181.707031 204.710938 166.457031 199.40625 149.105469 202.605469 C 122.167969 207.632812 101.167969 309.179688 142.53125 365.84375 Z M 142.53125 365.84375 " fill-opacity="1" fill-rule="nonzero"/></g></g><g clip-path="url(#c793eb70f6)"><g clip-path="url(#e0b900a587)"><path fill="#1b120d" d="M 299.773438 350.671875 L 299.40625 350.398438 C 299.226562 350.308594 299.132812 350.214844 298.949219 350.125 C 298.585938 349.941406 298.3125 349.667969 297.945312 349.484375 C 297.214844 349.027344 296.484375 348.664062 295.753906 348.296875 C 295.023438 347.929688 294.203125 347.65625 293.472656 347.292969 L 291.097656 346.46875 C 287.902344 345.464844 284.707031 345.007812 281.511719 345.097656 C 278.3125 345.28125 275.117188 345.738281 272.105469 347.109375 C 270.550781 347.566406 269.183594 348.480469 267.628906 349.210938 C 266.167969 350.03125 264.800781 351.128906 263.429688 352.042969 L 262.609375 352.59375 C 259.59375 354.511719 255.578125 353.597656 253.660156 350.582031 C 251.742188 347.566406 252.65625 343.542969 255.667969 341.625 C 257.585938 340.4375 259.414062 339.066406 261.421875 338.058594 C 263.519531 337.054688 265.4375 335.957031 267.722656 335.226562 C 272.011719 333.488281 276.761719 332.757812 281.417969 332.667969 C 286.074219 332.574219 290.734375 333.398438 295.023438 334.859375 C 296.121094 335.226562 297.125 335.683594 298.21875 336.050781 C 299.226562 336.507812 300.320312 336.964844 301.324219 337.511719 C 302.328125 338.058594 303.332031 338.609375 304.339844 339.25 C 304.792969 339.523438 305.34375 339.886719 305.800781 340.253906 C 306.074219 340.4375 306.253906 340.617188 306.53125 340.800781 C 306.804688 340.984375 306.984375 341.167969 307.351562 341.441406 C 309.90625 343.542969 310.363281 347.292969 308.265625 349.941406 C 306.253906 352.410156 302.785156 352.867188 300.230469 351.128906 Z M 299.773438 350.671875 " fill-opacity="1" fill-rule="nonzero"/></g></g><g clip-path="url(#d34865ae95)"><g clip-path="url(#e536f5cb15)"><path fill="#ffffff" d="M 142.53125 365.84375 C 127.375 278.832031 151.023438 219.699219 194.671875 213.667969 C 181.796875 204.710938 166.546875 199.40625 149.199219 202.605469 C 122.167969 207.632812 101.167969 309.179688 142.53125 365.84375 Z M 142.53125 365.84375 " fill-opacity="1" fill-rule="nonzero"/></g></g><g clip-path="url(#533e7df68a)"><g clip-path="url(#2a8ada2f0f)"><path fill="#1b120d" d="M 571.792969 640.132812 L 178.785156 640.132812 C 178.234375 640.132812 177.6875 640.042969 177.140625 639.859375 C 154.585938 631.085938 137.054688 614.359375 126.460938 591.417969 C 120.34375 578.253906 118.152344 566.558594 117.421875 561.621094 C 97.332031 551.019531 91.671875 532.097656 91.488281 531.277344 C 91.125 529.90625 91.398438 528.351562 92.21875 527.253906 C 93.132812 526.066406 94.503906 525.425781 95.964844 525.519531 C 100.894531 525.703125 105.640625 524.421875 109.660156 522.777344 C 89.480469 517.109375 84.640625 501.207031 84.457031 500.382812 C 84.09375 499.105469 84.273438 497.734375 85.003906 496.636719 C 85.734375 495.539062 86.921875 494.808594 88.292969 494.625 C 96.238281 493.710938 103.449219 490.421875 108.746094 487.222656 C 85.28125 481.554688 79.433594 462.726562 79.160156 461.8125 C 78.796875 460.535156 78.980469 459.070312 79.800781 457.976562 C 80.621094 456.878906 81.808594 456.148438 83.179688 456.054688 C 105.003906 454.5 120.527344 448.285156 129.476562 437.683594 C 135.957031 430.007812 137.054688 421.964844 137.234375 418.308594 C 100.070312 393.355469 73.683594 345.554688 64.734375 286.785156 C 56.152344 230.574219 64.550781 170.984375 87.195312 127.386719 C 97.878906 106.820312 122.261719 97.40625 143.902344 105.449219 C 208.367188 129.304688 260.417969 196.847656 293.289062 250.867188 C 324.335938 235.875 373.097656 235.238281 375.289062 235.238281 C 377.480469 235.238281 426.242188 235.875 457.378906 250.867188 C 490.25 196.941406 542.207031 129.398438 606.765625 105.449219 C 628.40625 97.40625 652.785156 106.914062 663.46875 127.386719 C 686.117188 170.984375 694.515625 230.574219 685.933594 286.785156 C 676.984375 345.554688 650.59375 393.265625 613.429688 418.308594 C 613.613281 421.964844 614.710938 430.007812 621.285156 437.777344 C 630.230469 448.285156 645.753906 454.410156 667.398438 455.964844 C 668.765625 456.054688 670.042969 456.785156 670.773438 457.882812 C 671.597656 458.980469 671.78125 460.441406 671.414062 461.722656 C 671.140625 462.636719 665.296875 481.554688 641.828125 487.222656 C 647.125 490.332031 654.339844 493.710938 662.28125 494.625 C 663.5625 494.808594 664.75 495.539062 665.570312 496.636719 C 666.300781 497.734375 666.484375 499.105469 666.117188 500.382812 C 665.84375 501.207031 661.097656 517.019531 640.914062 522.777344 C 644.933594 524.421875 649.683594 525.703125 654.613281 525.519531 C 656.074219 525.425781 657.445312 526.160156 658.355469 527.253906 C 659.269531 528.445312 659.542969 529.90625 659.085938 531.277344 C 658.8125 532.097656 653.152344 551.019531 633.152344 561.621094 C 632.421875 566.648438 630.230469 578.253906 624.113281 591.417969 C 613.523438 614.359375 595.988281 631.085938 573.4375 639.859375 C 572.980469 640.042969 572.433594 640.132812 571.792969 640.132812 Z M 179.605469 631.085938 L 570.96875 631.085938 C 619.273438 611.800781 624.386719 558.695312 624.480469 558.148438 C 624.664062 556.503906 625.574219 555.132812 627.035156 554.402344 C 638.722656 548.917969 645.117188 539.777344 648.128906 534.019531 C 635.164062 532.007812 625.117188 524.054688 624.664062 523.691406 C 623.203125 522.503906 622.652344 520.492188 623.203125 518.753906 C 623.839844 516.925781 625.484375 515.738281 627.308594 515.648438 C 643.839844 515.097656 651.691406 507.605469 655.070312 502.484375 C 639.089844 498.648438 627.402344 488.136719 626.855469 487.679688 C 625.484375 486.398438 625.027344 484.480469 625.667969 482.746094 C 626.304688 481.007812 627.949219 479.820312 629.777344 479.820312 C 647.765625 479.179688 656.4375 470.222656 660.183594 464.371094 C 639.179688 461.8125 623.75 454.867188 614.253906 443.441406 C 603.113281 430.191406 604.390625 415.933594 604.480469 415.382812 C 604.664062 414.011719 605.394531 412.734375 606.492188 412 C 642.558594 388.785156 668.21875 342.628906 676.984375 285.414062 C 685.292969 231.03125 677.257812 173.449219 655.433594 131.589844 C 646.851562 115.046875 627.308594 107.460938 609.871094 113.949219 C 546.40625 137.441406 494.90625 205.898438 462.949219 259.089844 C 461.667969 261.195312 459.023438 261.925781 456.921875 260.738281 C 428.15625 244.925781 375.835938 244.285156 375.378906 244.285156 C 374.921875 244.285156 322.601562 245.015625 293.929688 260.738281 C 291.828125 261.925781 289.089844 261.195312 287.902344 259.089844 C 255.941406 205.804688 204.441406 137.441406 140.980469 113.949219 C 123.628906 107.550781 104 115.136719 95.414062 131.589844 C 73.410156 173.542969 65.375 231.03125 73.683594 285.414062 C 82.449219 342.722656 108.109375 388.785156 144.175781 412 C 145.363281 412.734375 146.09375 414.011719 146.183594 415.382812 C 146.277344 416.023438 147.554688 430.191406 136.414062 443.441406 C 126.828125 454.867188 111.394531 461.8125 90.394531 464.371094 C 94.136719 470.222656 102.71875 479.179688 120.800781 479.820312 C 122.625 479.910156 124.269531 481.097656 124.910156 482.746094 C 125.546875 484.480469 125.089844 486.398438 123.722656 487.679688 C 123.175781 488.136719 111.484375 498.648438 95.507812 502.484375 C 98.886719 507.605469 106.738281 515.097656 123.265625 515.648438 C 125.183594 515.738281 126.828125 516.925781 127.375 518.753906 C 128.015625 520.582031 127.375 522.503906 125.914062 523.691406 C 125.457031 524.054688 115.320312 532.097656 102.445312 534.019531 C 105.460938 539.777344 111.851562 548.917969 123.539062 554.402344 C 125 555.132812 126.003906 556.503906 126.097656 558.148438 C 126.1875 558.789062 131.300781 611.800781 179.605469 631.085938 Z M 179.605469 631.085938 " fill-opacity="1" fill-rule="nonzero"/></g></g><g clip-path="url(#1c860ae3b7)"><g clip-path="url(#3101619a02)"><path fill="#e1a369" d="M 601.652344 643.058594 C 601.652344 643.058594 573.253906 638.671875 580.011719 611.066406 C 585.761719 587.578125 606.21875 563.816406 645.023438 563.359375 C 683.832031 562.902344 714.789062 598.273438 698.625 629.988281 C 690.773438 645.523438 666.847656 642.785156 666.847656 642.785156 C 666.847656 642.785156 652.421875 655.761719 633.792969 648.449219 C 633.886719 648.449219 617.722656 656.859375 601.652344 643.058594 Z M 601.652344 643.058594 " fill-opacity="1" fill-rule="nonzero"/></g></g><g clip-path="url(#6dedfe9d12)"><g clip-path="url(#fd89f8b428)"><path fill="#1b120d" d="M 621.832031 655.488281 C 615.441406 655.488281 607.585938 653.660156 599.644531 647.261719 C 595.898438 646.4375 584.941406 643.332031 578.824219 634.101562 C 574.441406 627.519531 573.34375 619.386719 575.628906 610.0625 C 581.5625 585.660156 602.929688 559.335938 645.023438 558.878906 C 645.300781 558.878906 645.480469 558.878906 645.753906 558.878906 C 668.035156 558.878906 689.402344 570.210938 700.359375 587.851562 C 709.035156 601.835938 709.949219 617.921875 702.734375 632.089844 C 694.882812 647.535156 674.703125 647.808594 668.308594 647.445312 C 663.835938 650.734375 650.59375 658.871094 633.976562 653.292969 C 631.601562 654.207031 627.21875 655.488281 621.832031 655.488281 Z M 645.753906 567.929688 C 645.574219 567.929688 645.300781 567.929688 645.117188 567.929688 C 608.226562 568.292969 589.597656 591.050781 584.394531 612.164062 C 582.75 619.019531 583.390625 624.6875 586.3125 629.074219 C 591.425781 636.75 602.199219 638.578125 602.289062 638.578125 C 603.113281 638.671875 603.933594 639.035156 604.574219 639.585938 C 618.179688 651.191406 631.695312 644.429688 631.785156 644.335938 C 632.972656 643.699219 634.339844 643.699219 635.527344 644.152344 C 651.234375 650.277344 663.378906 639.765625 663.925781 639.308594 C 664.839844 638.488281 666.117188 638.03125 667.398438 638.214844 C 667.578125 638.214844 688.308594 640.40625 694.609375 627.886719 C 700.359375 616.460938 699.628906 603.9375 692.597656 592.515625 C 683.285156 577.523438 664.929688 567.929688 645.753906 567.929688 Z M 645.753906 567.929688 " fill-opacity="1" fill-rule="nonzero"/></g></g><g clip-path="url(#b6d48dced4)"><g clip-path="url(#2e050c71c2)"><path fill="#1b120d" d="M 633.886719 652.929688 C 632.605469 652.929688 631.417969 652.378906 630.507812 651.464844 C 628.863281 649.636719 628.953125 646.804688 630.78125 645.160156 C 631.238281 644.703125 640.460938 635.652344 636.53125 613.992188 C 636.078125 611.523438 637.71875 609.148438 640.183594 608.78125 C 642.652344 608.324219 645.023438 609.972656 645.390625 612.4375 C 650.230469 639.402344 637.355469 651.375 636.808594 651.921875 C 635.984375 652.5625 634.890625 652.929688 633.886719 652.929688 Z M 633.886719 652.929688 " fill-opacity="1" fill-rule="nonzero"/></g></g><g clip-path="url(#8d2c8c53b2)"><g clip-path="url(#fc3240f60a)"><path fill="#1b120d" d="M 601.558594 647.628906 C 599.460938 647.628906 597.542969 646.164062 597.175781 644.0625 C 596.996094 643.148438 592.429688 620.480469 601.378906 603.117188 C 602.472656 600.921875 605.210938 600.007812 607.496094 601.195312 C 609.6875 602.292969 610.601562 605.035156 609.414062 607.320312 C 602.015625 621.761719 606.035156 642.144531 606.035156 642.328125 C 606.492188 644.792969 604.9375 647.171875 602.566406 647.628906 C 602.199219 647.535156 601.925781 647.628906 601.558594 647.628906 Z M 601.558594 647.628906 " fill-opacity="1" fill-rule="nonzero"/></g></g><g clip-path="url(#8b1e89aa30)"><g clip-path="url(#d443e1f934)"><path fill="#1b120d" d="M 666.941406 647.261719 C 665.9375 647.261719 664.839844 646.894531 664.019531 646.164062 C 662.101562 644.519531 661.917969 641.6875 663.46875 639.859375 C 663.835938 639.402344 670.957031 630.445312 667.945312 612.4375 C 667.488281 609.972656 669.222656 607.6875 671.6875 607.230469 C 674.152344 606.863281 676.4375 608.507812 676.894531 610.976562 C 680.636719 633.460938 670.867188 645.25 670.410156 645.707031 C 669.40625 646.804688 668.128906 647.261719 666.941406 647.261719 Z M 666.941406 647.261719 " fill-opacity="1" fill-rule="nonzero"/></g></g><g clip-path="url(#9a84faa54f)"><g clip-path="url(#7fd63bbdec)"><path fill="#e1a369" d="M 148.925781 643.058594 C 148.925781 643.058594 177.324219 638.671875 170.566406 611.066406 C 164.8125 587.578125 144.359375 563.816406 105.550781 563.359375 C 66.742188 562.902344 35.789062 598.273438 51.859375 629.988281 C 59.710938 645.523438 83.636719 642.785156 83.636719 642.785156 C 83.636719 642.785156 98.0625 655.761719 116.691406 648.449219 C 116.691406 648.449219 132.851562 656.859375 148.925781 643.058594 Z M 148.925781 643.058594 " fill-opacity="1" fill-rule="nonzero"/></g></g><g clip-path="url(#9218eb2f5e)"><g clip-path="url(#eee72548b0)"><path fill="#1b120d" d="M 128.746094 655.488281 C 123.265625 655.488281 118.972656 654.207031 116.601562 653.292969 C 99.980469 658.871094 86.742188 650.734375 82.265625 647.445312 C 75.875 647.808594 55.695312 647.535156 47.839844 632.089844 C 40.71875 617.921875 41.539062 601.835938 50.214844 587.851562 C 61.171875 570.210938 82.539062 558.878906 104.820312 558.878906 C 105.09375 558.878906 105.277344 558.878906 105.550781 558.878906 C 147.554688 559.335938 168.921875 585.566406 174.949219 610.0625 C 177.230469 619.476562 176.136719 627.519531 171.753906 634.101562 C 165.542969 643.332031 154.675781 646.4375 150.933594 647.261719 C 143.082031 653.660156 135.136719 655.488281 128.746094 655.488281 Z M 116.691406 643.878906 C 117.421875 643.878906 118.152344 644.0625 118.792969 644.429688 C 119.339844 644.703125 132.578125 651.191406 146.003906 639.675781 C 146.640625 639.128906 147.371094 638.761719 148.195312 638.671875 C 148.375 638.671875 159.152344 636.84375 164.265625 629.074219 C 167.1875 624.6875 167.824219 619.019531 166.183594 612.257812 C 160.976562 591.144531 142.351562 568.382812 105.460938 568.019531 C 105.277344 568.019531 105.003906 568.019531 104.820312 568.019531 C 85.644531 568.019531 67.289062 577.617188 57.886719 592.695312 C 50.761719 604.121094 50.125 616.644531 55.875 628.066406 C 62.269531 640.589844 82.90625 638.394531 83.089844 638.394531 C 84.367188 638.214844 85.644531 638.671875 86.648438 639.492188 C 87.105469 639.949219 99.339844 650.460938 115.046875 644.335938 C 115.59375 643.972656 116.144531 643.878906 116.691406 643.878906 Z M 116.691406 643.878906 " fill-opacity="1" fill-rule="nonzero"/></g></g><g clip-path="url(#d1ed966ffd)"><g clip-path="url(#a960f5790a)"><path fill="#1b120d" d="M 116.691406 652.929688 C 115.59375 652.929688 114.5 652.5625 113.675781 651.742188 C 113.128906 651.285156 100.253906 639.308594 105.09375 612.257812 C 105.550781 609.789062 107.832031 608.144531 110.300781 608.601562 C 112.765625 609.058594 114.40625 611.433594 113.953125 613.808594 C 110.023438 635.5625 119.613281 644.886719 119.703125 644.976562 C 121.53125 646.621094 121.714844 649.546875 120.070312 651.375 C 119.15625 652.472656 117.96875 652.929688 116.691406 652.929688 Z M 116.691406 652.929688 " fill-opacity="1" fill-rule="nonzero"/></g></g><g clip-path="url(#90837c081b)"><g clip-path="url(#470d5b9ef2)"><path fill="#1b120d" d="M 149.015625 647.628906 C 148.742188 647.628906 148.375 647.628906 148.101562 647.535156 C 145.636719 646.988281 144.085938 644.609375 144.632812 642.234375 C 144.632812 642.050781 148.742188 621.671875 141.253906 607.230469 C 140.160156 605.035156 140.980469 602.292969 143.171875 601.105469 C 145.363281 600.007812 148.101562 600.832031 149.289062 603.023438 C 158.238281 620.390625 153.671875 643.058594 153.488281 643.972656 C 152.941406 646.164062 151.023438 647.628906 149.015625 647.628906 Z M 149.015625 647.628906 " fill-opacity="1" fill-rule="nonzero"/></g></g><g clip-path="url(#8e4c1d5d17)"><g clip-path="url(#77eeb4518f)"><path fill="#1b120d" d="M 83.636719 647.261719 C 82.359375 647.261719 81.078125 646.714844 80.257812 645.707031 C 79.800781 645.25 70.03125 633.460938 73.773438 610.976562 C 74.230469 608.507812 76.511719 606.863281 78.980469 607.230469 C 81.445312 607.6875 83.089844 609.972656 82.722656 612.4375 C 79.710938 630.535156 86.832031 639.492188 87.195312 639.859375 C 88.75 641.777344 88.476562 644.613281 86.648438 646.164062 C 85.734375 646.894531 84.640625 647.261719 83.636719 647.261719 Z M 83.636719 647.261719 " fill-opacity="1" fill-rule="nonzero"/></g></g><g clip-path="url(#5dc6420019)"><g clip-path="url(#a8a272ff7a)"><path fill="#ffffff" d="M 298.128906 624.046875 C 298.128906 624.046875 312.921875 641.230469 338.125 652.746094 C 361.683594 663.621094 388.984375 663.621094 412.542969 652.746094 C 437.65625 641.230469 452.539062 624.046875 452.539062 624.046875 Z M 298.128906 624.046875 " fill-opacity="1" fill-rule="nonzero"/></g></g><g clip-path="url(#46322e36fe)"><g clip-path="url(#ff1fa1ac6c)"><path fill="#1b120d" d="M 375.289062 665.542969 C 361.957031 665.542969 348.625 662.707031 336.207031 656.949219 C 310.457031 645.160156 295.296875 627.792969 294.660156 627.0625 C 293.015625 625.144531 293.199219 622.308594 295.117188 620.664062 C 297.03125 619.019531 299.863281 619.203125 301.507812 621.121094 C 301.691406 621.304688 316.117188 637.757812 339.949219 648.722656 C 362.414062 659.050781 388.164062 659.050781 410.625 648.722656 C 434.457031 637.757812 448.886719 621.304688 449.070312 621.121094 C 450.710938 619.203125 453.542969 619.019531 455.460938 620.664062 C 457.378906 622.308594 457.558594 625.144531 455.917969 627.0625 C 455.277344 627.792969 440.121094 645.160156 414.371094 656.949219 C 401.953125 662.617188 388.621094 665.542969 375.289062 665.542969 Z M 375.289062 665.542969 " fill-opacity="1" fill-rule="nonzero"/></g></g><g clip-path="url(#2021516453)"><g clip-path="url(#459ca93ade)"><path fill="#1b120d" d="M 498.195312 526.523438 C 477.832031 526.160156 469.429688 513.363281 467.789062 506.597656 C 467.238281 504.132812 468.699219 501.753906 471.167969 501.117188 C 473.539062 500.566406 476.003906 502.027344 476.554688 504.40625 C 476.734375 505.046875 480.113281 517.109375 498.285156 517.382812 C 500.75 517.476562 502.761719 519.488281 502.667969 521.953125 C 502.667969 524.511719 500.660156 526.523438 498.195312 526.523438 Z M 498.195312 526.523438 " fill-opacity="1" fill-rule="nonzero"/></g></g><g clip-path="url(#de290e52f6)"><g clip-path="url(#814b484a3a)"><path fill="#1b120d" d="M 477.832031 511.992188 C 462.125 548.1875 416.289062 558.511719 384.144531 522.960938 L 375.289062 524.238281 L 366.429688 522.960938 C 334.289062 558.511719 288.449219 548.1875 272.742188 511.992188 L 259.777344 519.304688 C 259.777344 584.746094 321.777344 635.5625 375.289062 635.5625 C 428.796875 635.5625 490.796875 584.746094 490.796875 519.304688 Z M 477.832031 511.992188 " fill-opacity="1" fill-rule="nonzero"/></g></g><g clip-path="url(#c5412bcb34)"><g clip-path="url(#c1aee27182)"><path fill="#1b120d" d="M 252.382812 526.523438 C 249.914062 526.523438 247.90625 524.511719 247.90625 522.136719 C 247.816406 519.667969 249.824219 517.566406 252.289062 517.566406 C 270.734375 517.203125 273.929688 504.679688 274.023438 504.589844 C 274.570312 502.121094 277.035156 500.660156 279.5 501.207031 C 281.964844 501.753906 283.425781 504.222656 282.878906 506.691406 C 281.144531 513.269531 272.742188 526.160156 252.382812 526.523438 Z M 252.382812 526.523438 " fill-opacity="1" fill-rule="nonzero"/></g></g><g clip-path="url(#a379dd8029)"><g clip-path="url(#7a68fb32c9)"><path fill="#ec7676" d="M 418.570312 582.644531 C 401.675781 562.535156 375.289062 583.28125 375.289062 583.28125 C 375.289062 583.28125 348.808594 562.445312 332.003906 582.644531 C 325.707031 590.136719 326.800781 607.230469 339.859375 618.015625 C 348.898438 625.507812 362.59375 630.171875 375.378906 630.171875 C 388.070312 630.171875 401.859375 625.417969 410.898438 618.015625 C 423.773438 607.230469 424.871094 590.136719 418.570312 582.644531 Z M 418.570312 582.644531 " fill-opacity="1" fill-rule="nonzero"/></g></g><g clip-path="url(#076426ce62)"><g clip-path="url(#668a57b548)"><path fill="#1b120d" d="M 375.289062 634.648438 C 361.5 634.648438 346.796875 629.621094 336.9375 621.488281 C 329.449219 615.363281 324.699219 606.496094 323.878906 597.359375 C 323.238281 590.410156 324.976562 584.015625 328.535156 579.71875 C 342.78125 562.625 363.964844 570.121094 375.289062 577.707031 C 386.609375 570.121094 407.796875 562.625 422.039062 579.71875 C 425.601562 584.015625 427.335938 590.410156 426.695312 597.359375 C 425.875 606.496094 421.125 615.363281 413.640625 621.488281 C 403.777344 629.621094 389.074219 634.648438 375.289062 634.648438 Z M 350.542969 578.347656 C 345.335938 578.347656 339.949219 580.175781 335.476562 585.476562 C 333.46875 587.851562 332.460938 592.058594 332.917969 596.535156 C 333.558594 603.300781 337.121094 609.878906 342.6875 614.542969 C 350.90625 621.304688 363.691406 625.691406 375.289062 625.691406 C 386.882812 625.691406 399.757812 621.304688 407.886719 614.542969 C 413.457031 609.878906 417.109375 603.390625 417.65625 596.535156 C 418.023438 592.058594 417.109375 587.945312 415.101562 585.476562 C 401.3125 568.933594 379.03125 586.023438 378.027344 586.757812 C 376.382812 588.035156 374.101562 588.035156 372.457031 586.757812 C 371.910156 586.300781 361.5 578.347656 350.542969 578.347656 Z M 350.542969 578.347656 " fill-opacity="1" fill-rule="nonzero"/></g></g><g clip-path="url(#759c712ae5)"><g clip-path="url(#51cdc4c773)"><path fill="#1b120d" d="M 375.289062 611.800781 C 372.824219 611.800781 370.8125 609.789062 370.8125 607.320312 L 370.8125 583.28125 C 370.8125 580.816406 372.824219 578.804688 375.289062 578.804688 C 377.753906 578.804688 379.761719 580.816406 379.761719 583.28125 L 379.761719 607.320312 C 379.761719 609.789062 377.753906 611.800781 375.289062 611.800781 Z M 375.289062 611.800781 " fill-opacity="1" fill-rule="nonzero"/></g></g><g clip-path="url(#38c5a14cea)"><g clip-path="url(#5f4c5a1e9f)"><path fill="#1b120d" d="M 630.507812 301.957031 C 630.6875 307.714844 630.324219 313.472656 629.59375 319.230469 C 628.863281 324.988281 627.675781 330.65625 626.03125 336.230469 C 624.480469 341.808594 622.472656 347.382812 620.003906 352.683594 C 617.632812 358.078125 614.617188 363.195312 611.332031 368.128906 L 610.875 368.679688 L 611.238281 368.222656 C 609.230469 371.238281 606.949219 374.164062 604.480469 376.90625 C 602.015625 379.644531 599.460938 382.296875 596.628906 384.671875 C 594.804688 386.320312 591.882812 386.136719 590.238281 384.308594 C 588.777344 382.570312 588.777344 380.101562 590.144531 378.457031 L 590.144531 378.367188 C 592.792969 375.167969 594.894531 371.695312 596.171875 367.949219 C 597.453125 364.199219 598 360.179688 597.816406 356.066406 L 604.300781 359.902344 C 600.191406 361.914062 595.808594 363.285156 591.332031 364.109375 C 586.859375 364.929688 582.292969 365.023438 577.820312 364.65625 C 575.355469 364.472656 573.4375 362.28125 573.617188 359.8125 C 573.710938 358.714844 574.167969 357.800781 574.804688 357.070312 C 579.460938 352.136719 583.023438 346.46875 584.667969 340.164062 C 586.3125 333.945312 586.039062 327.183594 584.394531 320.601562 L 591.699219 322.980469 C 586.585938 327.273438 580.648438 330.472656 574.53125 332.667969 C 568.324219 334.769531 562.023438 335.957031 555.722656 336.507812 C 553.257812 336.6875 551.066406 334.859375 550.789062 332.394531 C 550.699219 331.84375 550.789062 331.296875 550.972656 330.75 C 552.527344 325.171875 554.898438 319.6875 558.09375 314.660156 C 561.292969 309.636719 565.492188 305.15625 570.238281 301.59375 L 572.886719 309.726562 C 568.140625 309.636719 563.390625 310.367188 558.917969 311.828125 C 554.351562 313.289062 549.96875 315.484375 545.769531 318.136719 C 543.667969 319.507812 540.835938 318.867188 539.558594 316.671875 C 538.738281 315.394531 538.644531 313.929688 539.195312 312.652344 C 543.121094 302.507812 547.960938 292.636719 554.351562 283.585938 C 560.742188 274.539062 568.777344 266.496094 578.183594 260.460938 L 579.738281 268.6875 C 575.171875 267.867188 570.605469 267.410156 566.132812 267.683594 C 561.65625 267.957031 557.273438 268.871094 553.164062 270.515625 C 549.054688 272.160156 545.128906 274.445312 541.566406 277.28125 C 538.007812 280.113281 534.71875 283.402344 531.796875 287.058594 C 530.246094 288.980469 527.324219 289.253906 525.40625 287.699219 C 524.859375 287.242188 524.402344 286.601562 524.128906 285.960938 C 522.847656 282.945312 521.9375 279.746094 521.386719 276.457031 C 520.839844 273.167969 520.839844 269.785156 521.113281 266.496094 L 525.953125 271.429688 C 523.304688 271.613281 520.839844 272.160156 518.558594 273.074219 C 516.273438 273.988281 514.355469 275.269531 512.714844 276.914062 L 512.621094 277.003906 C 510.796875 278.742188 507.964844 278.652344 506.230469 276.824219 C 504.953125 275.453125 504.675781 273.53125 505.40625 271.886719 C 507.324219 267.410156 509.515625 263.386719 511.800781 259.273438 C 512.894531 257.261719 514.175781 255.253906 515.359375 253.242188 C 516.640625 251.324219 517.828125 249.3125 519.195312 247.390625 C 524.402344 239.714844 530.246094 232.402344 536.910156 225.730469 C 543.484375 219.148438 550.882812 213.210938 559.191406 208.640625 C 567.410156 204.253906 576.816406 201.511719 586.039062 201.875 C 577.089844 203.976562 568.960938 207.816406 561.65625 212.753906 C 559.832031 214.03125 558.003906 215.21875 556.359375 216.683594 L 553.804688 218.785156 L 552.527344 219.789062 L 551.339844 220.886719 C 548.050781 223.8125 545.039062 227.101562 542.117188 230.390625 C 536.273438 237.0625 531.160156 244.375 526.410156 251.871094 C 524.035156 255.617188 521.84375 259.546875 519.746094 263.386719 C 517.644531 267.226562 515.636719 271.339844 513.898438 275.175781 L 506.503906 270.242188 C 509.0625 267.683594 512.257812 265.671875 515.542969 264.394531 C 518.832031 263.113281 522.210938 262.472656 525.496094 262.199219 C 527.960938 262.015625 530.152344 263.84375 530.335938 266.3125 C 530.335938 266.585938 530.335938 266.859375 530.335938 267.132812 C 529.789062 272.34375 530.609375 277.460938 532.621094 282.308594 L 524.949219 281.210938 C 528.238281 277.1875 531.890625 273.441406 536.089844 270.152344 C 540.289062 266.859375 544.945312 264.027344 549.96875 262.109375 C 554.992188 260.097656 560.378906 259 565.765625 258.632812 C 571.152344 258.269531 576.449219 258.816406 581.5625 259.730469 C 584.027344 260.1875 585.582031 262.566406 585.125 265.03125 C 584.851562 266.3125 584.121094 267.316406 583.113281 267.957031 C 574.714844 273.351562 567.59375 280.480469 561.75 288.703125 C 555.902344 296.929688 551.339844 306.160156 547.6875 315.757812 L 541.113281 310.273438 C 545.769531 307.351562 550.882812 304.789062 556.269531 303.054688 C 561.65625 301.316406 567.5 300.402344 573.253906 300.585938 C 575.71875 300.679688 577.726562 302.6875 577.636719 305.15625 C 577.636719 306.617188 576.90625 307.898438 575.808594 308.628906 C 571.882812 311.554688 568.503906 315.210938 565.855469 319.324219 C 563.207031 323.4375 561.199219 328.097656 559.832031 332.941406 L 555.082031 327.183594 C 560.835938 326.636719 566.496094 325.628906 571.699219 323.800781 C 576.996094 321.972656 581.835938 319.324219 585.945312 315.851562 C 587.863281 314.203125 590.695312 314.480469 592.246094 316.398438 C 592.703125 316.945312 593.066406 317.585938 593.160156 318.226562 C 594.074219 322.066406 594.710938 326.085938 594.804688 330.109375 C 594.894531 334.128906 594.4375 338.242188 593.433594 342.265625 C 592.429688 346.285156 590.785156 350.035156 588.683594 353.507812 C 586.585938 356.980469 584.121094 360.179688 581.472656 363.011719 L 578.550781 355.425781 C 582.382812 355.699219 586.128906 355.609375 589.871094 354.96875 C 593.523438 354.328125 597.085938 353.140625 600.464844 351.585938 C 602.746094 350.488281 605.394531 351.402344 606.492188 353.6875 C 606.765625 354.238281 606.949219 354.878906 606.949219 355.425781 C 607.222656 360.453125 606.582031 365.753906 604.847656 370.6875 C 603.203125 375.625 600.464844 380.101562 597.269531 383.941406 L 590.875 377.636719 C 593.433594 375.535156 595.808594 373.25 598.179688 370.871094 C 600.464844 368.496094 602.65625 365.9375 604.757812 363.285156 L 604.9375 363.101562 C 605.03125 363.011719 605.121094 362.921875 605.121094 362.828125 L 605.210938 362.738281 L 604.757812 363.285156 C 608.132812 358.992188 611.058594 354.328125 613.796875 349.484375 C 616.445312 344.640625 618.816406 339.613281 620.828125 334.402344 C 622.835938 329.195312 624.570312 323.800781 626.125 318.410156 C 627.765625 313.109375 629.136719 307.53125 630.507812 301.957031 Z M 630.507812 301.957031 " fill-opacity="1" fill-rule="nonzero"/></g></g><g clip-path="url(#88e578e268)"><g clip-path="url(#5eb6b96727)"><path fill="#1b120d" d="M 120.070312 301.957031 C 121.347656 307.53125 122.71875 313.109375 124.359375 318.5 C 125.914062 323.984375 127.648438 329.285156 129.65625 334.496094 C 131.667969 339.707031 134.039062 344.730469 136.6875 349.578125 C 139.429688 354.421875 142.351562 359.082031 145.726562 363.378906 L 145.273438 362.828125 L 145.363281 362.921875 C 145.453125 363.011719 145.546875 363.101562 145.546875 363.101562 L 145.726562 363.285156 C 147.828125 365.9375 150.019531 368.40625 152.304688 370.871094 C 154.585938 373.25 157.050781 375.535156 159.609375 377.636719 L 153.214844 383.941406 C 150.019531 380.101562 147.28125 375.535156 145.636719 370.6875 C 143.902344 365.753906 143.355469 360.542969 143.535156 355.425781 C 143.628906 352.957031 145.726562 351.039062 148.285156 351.128906 C 148.925781 351.128906 149.472656 351.3125 150.019531 351.585938 C 153.398438 353.230469 156.960938 354.328125 160.613281 354.96875 C 164.265625 355.609375 168.101562 355.699219 171.933594 355.425781 L 169.011719 363.011719 C 166.273438 360.179688 163.808594 356.980469 161.800781 353.507812 C 159.699219 350.03125 158.054688 346.195312 157.050781 342.265625 C 156.046875 338.335938 155.589844 334.128906 155.679688 330.109375 C 155.773438 326.085938 156.410156 322.066406 157.324219 318.226562 C 157.964844 315.851562 160.339844 314.296875 162.804688 314.9375 C 163.535156 315.117188 164.082031 315.394531 164.628906 315.851562 C 168.738281 319.414062 173.671875 322.066406 178.875 323.800781 C 184.171875 325.628906 189.742188 326.636719 195.492188 327.183594 L 190.746094 332.941406 C 189.375 328.097656 187.367188 323.4375 184.71875 319.324219 C 182.070312 315.210938 178.691406 311.554688 174.765625 308.628906 C 172.757812 307.167969 172.390625 304.332031 173.851562 302.324219 C 174.675781 301.136719 176.042969 300.585938 177.324219 300.496094 C 183.074219 300.402344 188.828125 301.226562 194.304688 302.960938 C 199.785156 304.699219 204.808594 307.257812 209.464844 310.183594 L 202.890625 315.667969 C 199.238281 306.070312 194.671875 296.839844 188.828125 288.613281 C 182.984375 280.386719 175.863281 273.167969 167.460938 267.867188 C 165.359375 266.496094 164.722656 263.753906 166.089844 261.652344 C 166.820312 260.554688 167.917969 259.914062 169.011719 259.640625 C 174.125 258.632812 179.515625 258.175781 184.808594 258.542969 C 190.199219 258.816406 195.492188 260.003906 200.605469 262.015625 C 205.628906 264.027344 210.285156 266.769531 214.488281 270.058594 C 218.6875 273.351562 222.339844 277.1875 225.625 281.117188 L 217.957031 282.214844 C 219.964844 277.371094 220.789062 272.253906 220.238281 267.042969 C 219.964844 264.574219 221.792969 262.382812 224.257812 262.109375 C 224.53125 262.109375 224.804688 262.109375 225.078125 262.109375 C 228.367188 262.382812 231.746094 263.023438 235.03125 264.300781 C 238.320312 265.582031 241.515625 267.589844 244.070312 270.152344 L 236.675781 275.085938 C 234.941406 271.246094 232.933594 267.132812 230.832031 263.296875 C 228.730469 259.367188 226.539062 255.527344 224.164062 251.78125 C 219.507812 244.195312 214.304688 236.972656 208.460938 230.300781 C 205.539062 227.011719 202.523438 223.8125 199.238281 220.796875 L 198.050781 219.699219 L 196.773438 218.691406 L 194.214844 216.589844 C 192.570312 215.128906 190.746094 213.847656 188.917969 212.660156 C 181.613281 207.632812 173.488281 203.886719 164.539062 201.785156 C 173.761719 201.417969 183.074219 204.160156 191.382812 208.546875 C 199.601562 213.027344 207 218.96875 213.664062 225.640625 C 220.238281 232.3125 226.082031 239.625 231.378906 247.300781 C 232.75 249.21875 233.9375 251.230469 235.214844 253.152344 C 236.402344 255.160156 237.589844 257.171875 238.777344 259.183594 C 241.058594 263.296875 243.25 267.316406 245.167969 271.796875 C 246.171875 274.082031 245.167969 276.730469 242.886719 277.738281 C 241.148438 278.46875 239.230469 278.101562 237.953125 276.914062 L 237.769531 276.824219 C 236.128906 275.175781 234.117188 273.898438 231.925781 272.984375 C 229.644531 272.070312 227.179688 271.613281 224.53125 271.339844 L 229.371094 266.402344 C 229.644531 269.695312 229.644531 273.074219 229.097656 276.367188 C 228.640625 279.65625 227.636719 282.855469 226.355469 285.871094 C 225.351562 288.15625 222.796875 289.253906 220.421875 288.339844 C 219.691406 288.066406 219.144531 287.609375 218.6875 287.058594 C 215.671875 283.496094 212.476562 280.113281 208.917969 277.28125 C 205.355469 274.445312 201.519531 272.160156 197.320312 270.515625 C 193.210938 268.871094 188.828125 267.957031 184.355469 267.683594 C 179.878906 267.410156 175.3125 267.773438 170.746094 268.6875 L 172.300781 260.460938 C 181.707031 266.496094 189.742188 274.628906 196.132812 283.585938 C 202.523438 292.636719 207.363281 302.503906 211.289062 312.652344 C 212.203125 314.9375 211.015625 317.585938 208.734375 318.5 C 207.363281 319.050781 205.902344 318.867188 204.714844 318.136719 C 200.515625 315.484375 196.132812 313.289062 191.566406 311.828125 C 187 310.367188 182.253906 309.636719 177.597656 309.726562 L 180.246094 301.59375 C 184.992188 305.15625 189.101562 309.636719 192.390625 314.660156 C 195.585938 319.6875 197.960938 325.171875 199.511719 330.75 C 200.152344 333.125 198.78125 335.683594 196.40625 336.324219 C 195.859375 336.507812 195.3125 336.507812 194.761719 336.507812 C 188.460938 335.957031 182.160156 334.769531 175.953125 332.667969 C 169.835938 330.566406 163.808594 327.367188 158.785156 322.980469 L 166.089844 320.601562 C 164.449219 327.183594 164.171875 333.855469 165.816406 340.164062 C 167.460938 346.46875 171.023438 352.136719 175.679688 357.070312 C 177.414062 358.898438 177.324219 361.730469 175.496094 363.46875 C 174.675781 364.199219 173.761719 364.65625 172.757812 364.65625 C 168.28125 365.023438 163.71875 364.839844 159.242188 364.109375 C 154.769531 363.378906 150.386719 361.914062 146.277344 359.902344 L 152.757812 356.066406 C 152.578125 360.179688 153.035156 364.199219 154.402344 367.949219 C 155.679688 371.695312 157.78125 375.257812 160.429688 378.367188 L 160.429688 378.457031 C 161.980469 380.378906 161.800781 383.210938 159.882812 384.855469 C 158.148438 386.320312 155.679688 386.226562 154.039062 384.765625 C 151.207031 382.386719 148.648438 379.738281 146.183594 376.996094 C 143.71875 374.253906 141.527344 371.328125 139.429688 368.3125 L 139.792969 368.769531 L 139.335938 368.222656 C 135.957031 363.285156 133.035156 358.167969 130.660156 352.773438 C 128.195312 347.382812 126.277344 341.898438 124.636719 336.324219 C 122.992188 330.746094 121.894531 324.988281 121.074219 319.324219 C 120.253906 313.472656 119.886719 307.714844 120.070312 301.957031 Z M 120.070312 301.957031 " fill-opacity="1" fill-rule="nonzero"/></g></g></svg>