<svg xmlns="http://www.w3.org/2000/svg" xmlns:xlink="http://www.w3.org/1999/xlink" width="1000" zoomAndPan="magnify" viewBox="0 0 750 749.999995" height="1000" preserveAspectRatio="xMidYMid meet" version="1.0"><defs><clipPath id="533896517c"><path d="M 113.363281 37.5 L 636.863281 37.5 L 636.863281 712.5 L 113.363281 712.5 Z M 113.363281 37.5 " clip-rule="nonzero"/></clipPath></defs><g clip-path="url(#533896517c)"><path fill="#5bb4c5" d="M 636.628906 661.515625 C 636.628906 481.394531 519.398438 335.464844 374.996094 335.464844 C 230.597656 335.464844 113.363281 481.394531 113.363281 661.515625 C 113.363281 689.601562 230.597656 712.496094 374.996094 712.496094 C 519.398438 712.496094 636.628906 689.601562 636.628906 661.515625 Z M 374.996094 37.503906 C 453.761719 37.503906 517.566406 101.308594 517.566406 180.074219 C 517.566406 258.835938 453.761719 322.644531 374.996094 322.644531 C 296.234375 322.644531 232.429688 258.835938 232.429688 180.074219 C 232.429688 101.308594 296.234375 37.503906 374.996094 37.503906 Z M 374.996094 37.503906 " fill-opacity="1" fill-rule="evenodd"/></g></svg>